<svg width="271" height="279" viewBox="0 0 271 279" fill="none" xmlns="http://www.w3.org/2000/svg">
<path d="M82.7498 8.95721C71.0772 20.4062 77.8707 43.7792 62.3472 51.1299C47.2394 58.2841 33.8553 39.4237 19.7615 45.3786C-1.14299 54.2142 -8.30448 111.191 12.3273 151.282C18.5316 163.336 24.596 168.712 25.3919 181.184C27.1025 207.966 1.41925 218.903 3.39238 232.363C7.84258 262.663 153.862 314.695 230.276 240.424C265.967 205.736 280.998 148.821 264.013 100.282C233.322 12.5703 108.953 -16.7313 82.7498 8.95721Z" fill="#F0ECE6"/>
<path d="M184.687 28.9623L204.513 251.159C204.817 254.523 202.473 257.514 199.31 257.806L92.066 268.841C85.6498 269.182 82.2541 265.701 81.9661 262.211L62.9395 31.5148C62.6586 28.1094 65.8444 24.8985 72.1836 24.6655L178.445 23.1056C181.587 23.0458 184.394 25.6804 184.687 28.9623Z" fill="#0A0A0A"/>
<path d="M189.558 28.4112L209.559 251.937C209.863 255.322 207.51 258.332 204.329 258.623L93.0513 268.884C89.6394 269.199 86.6046 266.579 86.3136 263.063L67.1227 30.9739C66.8388 27.5482 69.3838 24.6938 72.7704 24.628L183.279 22.5191C186.439 22.4594 189.262 25.1102 189.558 28.4112Z" fill="#0A0A0A"/>
<path d="M131.581 30.3004C131.683 31.4662 130.845 32.4275 129.712 32.4558C128.578 32.4842 127.575 31.5544 127.475 30.3875C127.375 29.2206 128.213 28.2604 129.348 28.233C130.482 28.2057 131.481 29.1355 131.581 30.3004Z" fill="url(#paint0_linear_537_2907)"/>
<path d="M190.942 101.69L78.9343 106.748L76.002 73.9762L188.222 70.1262L190.942 101.69Z" fill="white"/>
<path d="M204.05 253.842L93.0655 264.691L77.4233 89.8648L189.541 85.4283L204.05 253.842Z" fill="#D8DEE8"/>
<path d="M189.106 80.3859L76.9547 84.629L72.2764 32.3414L184.768 30.0299L189.106 80.3859Z" fill="#FF9F1C"/>
<path d="M175.778 56.1965L135.344 57.3857L134.985 53.2854L175.428 52.152L175.778 56.1965Z" fill="white"/>
<path d="M176.446 63.9271L136.031 65.2226L135.671 61.1244L176.097 59.8846L176.446 63.9271Z" fill="white"/>
<path d="M210.538 265.331C209.765 265.332 209.004 265.142 208.322 264.778C207.641 264.413 207.06 263.886 206.632 263.242L157.651 189.719L110.256 193.174L80.521 254.521C80.2527 255.075 79.8779 255.57 79.418 255.979C78.958 256.388 78.422 256.702 77.8406 256.904C77.2591 257.106 76.6435 257.191 76.0289 257.155C75.4144 257.119 74.8129 256.963 74.2588 256.695C73.7048 256.427 73.209 256.053 72.7998 255.593C72.3906 255.134 72.076 254.598 71.874 254.017C71.6719 253.436 71.5864 252.821 71.6222 252.207C71.6581 251.594 71.8146 250.993 72.0829 250.439L102.997 186.663C103.355 185.923 103.902 185.289 104.583 184.827C105.264 184.365 106.054 184.09 106.875 184.029L159.702 180.18C160.53 180.12 161.359 180.28 162.105 180.645C162.85 181.009 163.485 181.565 163.945 182.256L214.44 258.05C214.909 258.755 215.179 259.575 215.219 260.421C215.26 261.266 215.07 262.108 214.67 262.854C214.27 263.601 213.675 264.225 212.947 264.661C212.22 265.097 211.389 265.327 210.541 265.328L210.538 265.331Z" fill="white"/>
<path d="M142.763 270.77C141.592 270.769 140.463 270.33 139.6 269.539C138.737 268.748 138.201 267.663 138.099 266.497L131.188 187.967L75.4371 81.7848C75.1447 81.2397 74.9633 80.6421 74.9034 80.0266C74.8434 79.411 74.9062 78.7897 75.0879 78.1986C75.2696 77.6074 75.5668 77.058 75.9622 76.5822C76.3577 76.1063 76.8435 75.7135 77.3918 75.4262C77.94 75.139 78.5398 74.9631 79.1565 74.9087C79.7732 74.8543 80.3945 74.9225 80.9847 75.1093C81.5748 75.2961 82.1221 75.5978 82.5949 75.997C83.0677 76.3963 83.4566 76.8851 83.7392 77.4354L139.924 184.452C140.212 185 140.388 185.6 140.443 186.216L147.439 265.682C147.493 266.294 147.426 266.911 147.241 267.498C147.056 268.084 146.757 268.628 146.362 269.1C145.967 269.571 145.482 269.959 144.936 270.244C144.39 270.528 143.794 270.702 143.181 270.755C143.039 270.764 142.9 270.77 142.763 270.77Z" fill="white"/>
<path d="M139.461 231.856C138.609 231.853 137.792 231.523 137.178 230.934C136.565 230.345 136.202 229.542 136.165 228.692C136.129 227.843 136.421 227.012 136.982 226.372C137.543 225.732 138.329 225.333 139.177 225.257L173.272 222.288L161.318 84.7152C161.271 84.2777 161.311 83.8353 161.437 83.4136C161.563 82.992 161.772 82.5998 162.052 82.2599C162.331 81.92 162.676 81.6393 163.066 81.4343C163.455 81.2292 163.882 81.104 164.321 81.0659C164.76 81.0278 165.202 81.0776 165.621 81.2124C166.04 81.3472 166.428 81.5642 166.762 81.8508C167.097 82.1374 167.37 82.4878 167.567 82.8813C167.764 83.2749 167.88 83.7038 167.909 84.1429L180.148 225.008C180.224 225.881 179.95 226.749 179.385 227.42C178.821 228.091 178.013 228.511 177.139 228.587L139.75 231.844C139.654 231.856 139.556 231.856 139.461 231.856Z" fill="white"/>
<path d="M200.529 196.393C200.276 196.393 200.024 196.344 199.79 196.247C199.556 196.15 199.343 196.007 199.163 195.828L136.765 133.401C133.598 134.428 124.247 137.453 114.928 140.339C108.222 142.421 102.84 144.03 98.932 145.124C96.4631 145.815 94.6735 146.293 93.3482 146.578C95.7219 153.198 103.572 173.825 109.019 188.017C109.109 188.254 109.153 188.506 109.146 188.759C109.139 189.012 109.082 189.261 108.979 189.492C108.876 189.724 108.728 189.932 108.544 190.107C108.36 190.281 108.144 190.417 107.907 190.508C107.67 190.598 107.418 190.641 107.165 190.634C106.911 190.628 106.662 190.571 106.43 190.468C106.199 190.365 105.99 190.217 105.816 190.033C105.641 189.85 105.505 189.633 105.414 189.397C105.372 189.289 101.178 178.356 97.0755 167.545C94.6643 161.193 92.7561 156.125 91.4035 152.48C90.5923 150.31 89.984 148.624 89.5713 147.469C88.7794 145.241 88.3434 144.007 89.8603 143.196C90.2944 142.966 90.8003 142.911 91.2737 143.043C94.931 142.673 120.859 134.534 136.698 129.369C137.037 129.258 137.4 129.243 137.747 129.326C138.094 129.409 138.411 129.587 138.662 129.84L201.898 193.106C202.169 193.375 202.354 193.719 202.429 194.093C202.504 194.468 202.466 194.856 202.32 195.209C202.174 195.562 201.925 195.863 201.607 196.074C201.289 196.286 200.915 196.398 200.532 196.396L200.529 196.393ZM92.3018 143.709C92.3262 143.739 92.3485 143.769 92.3708 143.801C92.3485 143.768 92.3252 143.739 92.3018 143.709Z" fill="white"/>
<path d="M137.288 133.126C136.805 133.127 136.34 132.946 135.985 132.62C135.629 132.294 135.409 131.847 135.367 131.367L130.346 74.1454C130.301 73.6359 130.461 73.1295 130.79 72.7376C131.119 72.3458 131.59 72.1005 132.1 72.0557C132.61 72.011 133.117 72.1705 133.51 72.4991C133.902 72.8278 134.147 73.2986 134.192 73.8081L139.214 131.031C139.237 131.283 139.209 131.537 139.133 131.779C139.057 132.021 138.934 132.245 138.771 132.439C138.608 132.633 138.409 132.793 138.184 132.91C137.959 133.026 137.713 133.098 137.46 133.119C137.405 133.124 137.349 133.126 137.288 133.126Z" fill="white"/>
<path d="M120.921 115.241C125.145 114.824 128.23 111.065 127.812 106.846C127.394 102.626 123.632 99.5444 119.408 99.9618C115.185 100.379 112.099 104.138 112.517 108.357C112.935 112.576 116.698 115.658 120.921 115.241Z" fill="#C32F27"/>
<g style="mix-blend-mode:soft-light" opacity="0.48">
<g style="mix-blend-mode:soft-light" opacity="0.48">
<path d="M162.821 181.858C152.033 144.206 120.58 147.971 111.174 113.947C103.448 86.0035 121.261 71.2727 110.456 47.8784C105.374 36.8762 96.4715 29.4363 87.2365 24.3525L72.7655 24.628C69.3779 24.6928 66.8339 27.5482 67.1178 30.9739L86.3108 263.063C86.6018 266.579 89.6365 269.199 93.0484 268.884L184.285 260.477C178.452 253.083 172.916 244.035 169.076 233.167C160.945 210.159 168.786 202.684 162.821 181.858Z" fill="white"/>
</g>
</g>
<path d="M153.042 40.23C153.042 54.2609 133.365 79.8633 124.461 90.7319C123.941 91.3659 123.287 91.8767 122.545 92.2274C121.804 92.5781 120.994 92.7601 120.174 92.7601C119.353 92.7601 118.543 92.5781 117.802 92.2274C117.061 91.8767 116.406 91.3659 115.887 90.7319C106.982 79.8633 87.3066 54.2609 87.3066 40.23C87.3066 22.0988 102.021 7.39532 120.174 7.39532C138.326 7.39532 153.042 22.0958 153.042 40.23Z" fill="#C32F27"/>
<path d="M133.136 53.179C140.294 46.0275 140.294 34.4327 133.136 27.2812C125.977 20.1297 114.37 20.1297 107.212 27.2812C100.053 34.4327 100.053 46.0275 107.212 53.179C114.37 60.3305 125.977 60.3305 133.136 53.179Z" fill="#F0ECE6"/>
<g opacity="0.2">
<path opacity="0.2" d="M120.029 77.25C122.114 63.5321 131.182 59.1411 129.626 46.1869C127.831 31.2484 114.59 27.2687 114.271 13.9782C114.227 11.8909 114.494 9.80866 115.061 7.79944C99.3371 10.2456 87.3066 23.8339 87.3066 40.2299C87.3066 54.2608 106.977 79.8633 115.887 90.7319C116.496 91.4774 117.29 92.0508 118.19 92.3952C119.09 92.7395 120.064 92.8429 121.016 92.6949C119.422 86.6863 119.375 81.5549 120.029 77.25Z" fill="#C32F27"/>
</g>
<path d="M144.669 117.719L141.533 116.239C141.533 116.239 139.498 110.914 138.211 109.235C136.923 107.555 133.894 105.001 133.894 105.001C133.894 105.001 133.04 106.328 133.99 107.286C134.939 108.244 136.322 109.764 136.296 110.177C136.271 110.59 134.448 112.325 135.26 115.226C136.072 118.127 139.854 118.022 139.854 118.022L143.177 119.678L144.669 117.719Z" fill="url(#paint1_linear_537_2907)"/>
<path d="M208.128 265.433C208.128 265.433 208.883 268.491 208.907 269.599C208.93 270.706 196.728 272.25 196.536 271.435C196.345 270.62 198.39 269.133 199.864 268.548C201.338 267.964 205.666 266.372 205.666 266.372L208.128 265.433Z" fill="#0A0A0A"/>
<path d="M204.907 262.583L205.606 266.404C205.606 266.404 207.105 267.229 208.3 266.404L208.591 262.161L204.907 262.583Z" fill="url(#paint2_linear_537_2907)"/>
<path d="M230.384 268.706C230.384 268.706 231.139 271.764 231.164 272.872C231.188 273.98 218.984 275.524 218.794 274.708C218.603 273.891 220.647 272.406 222.121 271.822C223.596 271.237 227.923 269.645 227.923 269.645L230.384 268.706Z" fill="#0A0A0A"/>
<path d="M227.163 265.856L227.864 269.676C227.864 269.676 229.361 270.502 230.557 269.676L230.848 265.433L227.163 265.856Z" fill="url(#paint3_linear_537_2907)"/>
<path d="M199.062 161.832C197.877 164.813 196.691 167.794 195.505 170.774C195.679 187.229 196.541 205.069 198.431 224.069C199.836 238.204 201.669 251.555 203.767 264.058L209.505 263.333C211.837 257.607 214.447 249.007 213.923 238.69C213.376 227.929 210.004 226.764 209.386 216.469C208.585 203.124 213.892 199.122 215.587 182.858C216.234 176.638 216.359 168.575 214.674 158.932L199.062 161.832Z" fill="#0A0A0A"/>
<path style="mix-blend-mode:multiply" opacity="0.3" d="M214.669 158.932L206.236 160.499C201.848 169.773 201.166 179.115 202.383 183.125C204.113 188.797 207.61 190.38 207.892 196.192C208.17 201.943 204.905 203.701 203.301 210.636C202.19 215.436 202.929 219.709 204.449 228.058C207.512 244.878 212.026 249.734 209.039 255.571C208.19 257.228 206.583 259.251 203.259 260.962C203.427 261.996 203.594 263.032 203.766 264.054L209.504 263.329C211.836 257.603 214.446 249.003 213.922 238.686C213.375 227.925 210.003 226.76 209.385 216.465C208.584 203.12 213.891 199.118 215.586 182.853C216.235 176.638 216.359 168.571 214.669 158.932Z" fill="url(#paint4_linear_537_2907)"/>
<path d="M207.094 166.385C210.912 180.649 214.503 195.957 217.652 212.242C221.455 231.906 224.136 250.517 225.993 267.846L232.328 267.519C239.315 250.447 238.93 239.282 237.151 232.135C236.466 229.382 234.774 224.009 233.833 215.853C233.175 210.168 233.192 205.8 233.224 200.548C233.304 189.032 234.314 186.439 233.786 177.678C233.291 169.456 232.991 165.3 230.451 163.063C223.763 157.17 208.264 165.722 207.094 166.385Z" fill="#0A0A0A"/>
<path d="M141.141 115.084L139.242 119.357C141.465 122.68 146.593 129.306 155.451 132.681C171.065 138.63 190.401 131.477 197.272 119.055C200.675 112.904 202.204 103.316 198.547 100.627C197.533 99.8795 195.81 99.4359 191.59 100.763C180.335 104.302 177.09 112.346 170.252 116.42C165.329 119.352 156.781 121.274 141.141 115.084Z" fill="#95AE45"/>
<path d="M194.129 173.84C191.841 170.655 194.117 167.225 194.186 160.839C194.265 153.601 191.397 152.627 187.697 140.939C185.239 133.165 182.88 125.703 184.25 116.636C184.908 112.291 186.025 104.921 191.738 100.947C194.685 98.897 198.923 98.7389 207.276 98.508C217.607 98.2213 222.773 98.0785 226.77 99.7893C227.356 100.04 239.534 105.447 241.168 115.719C242.829 126.174 231.473 128.506 231.07 142.663C230.888 149.016 232.889 158.604 234.187 164.824C235.433 170.795 236.081 172.298 235.036 174.219C232.517 178.851 223.623 178.3 205.835 177.199C198.867 176.763 195.835 176.216 194.129 173.84Z" fill="#95AE45"/>
<path style="mix-blend-mode:multiply" opacity="0.3" d="M218.455 141.403C219.418 144.077 222.256 145.905 224.652 152.407C225.169 153.811 228.852 163.809 225.341 166.623C223.313 168.243 221.165 165.648 215.931 165.705C206.861 165.806 203.17 173.722 197.112 172.126C196.06 171.848 194.65 171.191 193.157 169.541C193.016 171.146 193.172 172.519 194.126 173.845C195.832 176.221 198.864 176.768 205.842 177.199C223.629 178.3 232.523 178.851 235.043 174.219C236.088 172.295 235.44 170.795 234.194 164.824C232.896 158.604 230.895 149.016 231.077 142.663C231.482 128.512 242.839 126.179 241.175 115.72C240.731 112.925 239.494 110.503 237.93 108.435C223.86 115.48 215.429 132.996 218.455 141.403Z" fill="url(#paint5_linear_537_2907)"/>
<path d="M238.492 160.621L235.73 162.711C235.159 162.149 233.851 161.03 231.928 160.766C229.762 160.469 227.373 161.335 227.371 162.018C227.371 162.565 228.9 162.994 229.137 163.061C231.049 163.597 232.382 162.918 233.193 163.604C233.48 163.846 233.85 164.313 234.648 164.704C234.823 164.792 235.004 164.868 235.189 164.93C236.467 165.313 238.421 162.986 238.588 162.784L238.492 160.621Z" fill="url(#paint6_linear_537_2907)"/>
<path d="M226.832 123.171C224.323 118.3 222.245 110.704 224.652 98.9821C247.263 105.854 260.076 125.41 257.012 141.97C254.487 155.622 241.921 163.18 239.111 164.783C238.308 163.293 237.505 161.802 236.701 160.312C239.782 156.278 243.149 150.407 242.1 144.099C240.646 135.354 231.914 133.029 226.832 123.171Z" fill="#95AE45"/>
<path d="M206.382 83.5767C206.382 83.5767 207.042 88.8266 208.996 92.6412C210.761 96.0852 218.723 97.7058 220.365 98.3764C222.006 99.0469 217.659 101.736 213.144 102.558C208.629 103.379 195.547 103.387 193.068 101.849C190.589 100.31 194.823 100.104 197.977 98.6529C201.13 97.2014 202.499 90.7035 201.695 87.8684C200.891 85.0332 206.382 83.5767 206.382 83.5767Z" fill="#FFC444"/>
<path d="M199.449 80.5329C195.675 77.3797 195.155 77.018 194.684 75.8623C192.772 71.2211 195.947 64.4032 200.666 62.4088C200.911 62.3075 204.08 61.0049 205.431 62.3156C206.582 63.4298 205.164 65.2054 206.086 67.4541C206.95 69.5589 208.838 69.5701 212.539 72.1246C215.588 74.2285 217.483 75.5361 218.057 77.5437C219.24 81.6815 214.633 88.1854 210.108 88.3819C208.482 88.4508 207.974 87.6577 199.449 80.5329Z" fill="#0A0A0A"/>
<path d="M209.72 89.0656C209.72 89.0656 206.34 93.5691 200.564 92.6321C195.393 91.7934 195.755 80.0629 199.317 77.9084C200.505 77.1892 202.758 77.0606 204.516 77.7392C205.554 78.1444 205.871 78.6184 207.58 79.2414C209.156 79.8147 209.63 79.68 210.078 80.1368C210.639 80.7091 210.964 82.0097 209.618 85.3199C210.707 84.4083 211.936 84.1398 212.742 84.6189C213.015 84.8034 213.233 85.0601 213.369 85.3604C213.969 86.7623 212.588 88.3455 209.72 89.0656Z" fill="#FFC444"/>
<path d="M12.2451 106.964C9.02882 106.94 6.58319 109.547 6.79612 112.787L11.5231 184.794C11.7361 188.036 14.5163 190.525 17.7193 190.356L94.336 186.327C97.1822 186.178 99.3196 183.592 99.1198 180.553L94.3289 107.575L12.2451 106.964Z" fill="#FF9F1C"/>
<path d="M88.4017 130.957L75.9697 107.445L106.655 107.676L88.4017 130.957Z" fill="#FF9F1C"/>
<path opacity="0.63" d="M84.6893 153.892L22.1097 155.621L21.8228 151.257L84.4156 149.725L84.6893 153.892Z" fill="white"/>
<path opacity="0.63" d="M85.1779 161.338L22.6216 163.421L22.4482 160.782L85.0127 158.819L85.1779 161.338Z" fill="white"/>
<path opacity="0.63" d="M85.4528 165.521L22.9087 167.802L22.7363 165.163L85.2876 163.002L85.4528 165.521Z" fill="white"/>
<path opacity="0.63" d="M83.2738 132.361L56.2806 132.72L56.2329 131.581L83.2282 131.273L83.2738 132.361Z" fill="white"/>
<path opacity="0.63" d="M83.1727 129.406L56.1795 129.766L56.1318 128.626L83.1271 128.318L83.1727 129.406Z" fill="white"/>
<path opacity="0.63" d="M82.9696 126.553L55.9764 126.911L55.9287 125.772L82.924 125.464L82.9696 126.553Z" fill="white"/>
<path opacity="0.63" d="M85.7278 169.705L23.1968 172.183L23.0234 169.545L85.5615 167.186L85.7278 169.705Z" fill="white"/>
<path opacity="0.63" d="M54.0747 141.951L22.4883 142.524L20.9653 119.334L52.5872 119.29L54.0747 141.951Z" fill="white"/>
<path d="M58.897 137.063L59.7335 138.601L61.3892 138.823L60.282 140.048L60.6734 141.744L59.1525 140.966L57.735 141.797L57.9043 140.087L56.6328 138.899L58.2632 138.624L58.897 137.063Z" fill="white"/>
<path d="M64.5598 136.981L65.3892 138.512L67.0308 138.733L65.9337 139.952L66.3231 141.642L64.8143 140.867L63.408 141.695L63.5753 139.992L62.3149 138.809L63.9312 138.534L64.5598 136.981Z" fill="white"/>
<path d="M70.1748 136.899L70.9971 138.424L72.6255 138.645L71.5376 139.858L71.9249 141.541L70.4283 140.769L69.0341 141.593L69.1994 139.898L67.9492 138.719L69.5523 138.446L70.1748 136.899Z" fill="white"/>
<path d="M75.7425 136.818L76.5597 138.336L78.1739 138.556L77.0961 139.764L77.4794 141.44L75.996 140.672L74.614 141.492L74.7772 139.804L73.5361 138.63L75.126 138.358L75.7425 136.818Z" fill="white"/>
<path opacity="0.63" d="M81.2642 136.736L82.0754 138.25L83.6764 138.469L82.6077 139.672L82.9879 141.34L81.5167 140.575L80.1458 141.392L80.3081 139.71L79.0771 138.541L80.6538 138.272L81.2642 136.736Z" fill="white"/>
<defs>
<linearGradient id="paint0_linear_537_2907" x1="133.007" y1="21.9116" x2="-6.57613" y2="360.98" gradientUnits="userSpaceOnUse">
<stop stop-color="#FFC444"/>
<stop offset="1" stop-color="#F36F56"/>
</linearGradient>
<linearGradient id="paint1_linear_537_2907" x1="1032.76" y1="1544.05" x2="-3334.19" y2="5779.16" gradientUnits="userSpaceOnUse">
<stop stop-color="#FFC444"/>
<stop offset="1" stop-color="#F36F56"/>
</linearGradient>
<linearGradient id="paint2_linear_537_2907" x1="7713.49" y1="12706.6" x2="7726.52" y2="11830.2" gradientUnits="userSpaceOnUse">
<stop stop-color="#FFC444"/>
<stop offset="1" stop-color="#F36F56"/>
</linearGradient>
<linearGradient id="paint3_linear_537_2907" x1="8545.8" y1="12721.9" x2="8558.83" y2="11845.5" gradientUnits="userSpaceOnUse">
<stop stop-color="#FFC444"/>
<stop offset="1" stop-color="#F36F56"/>
</linearGradient>
<linearGradient id="paint4_linear_537_2907" x1="195.506" y1="211.495" x2="216.031" y2="211.495" gradientUnits="userSpaceOnUse">
<stop stop-color="#444B8C"/>
<stop offset="1" stop-color="#26264F"/>
</linearGradient>
<linearGradient id="paint5_linear_537_2907" x1="269.716" y1="218.118" x2="200.272" y2="118.318" gradientUnits="userSpaceOnUse">
<stop stop-color="#AA80F9"/>
<stop offset="1" stop-color="#6165D7"/>
</linearGradient>
<linearGradient id="paint6_linear_537_2907" x1="25381.4" y1="7154.32" x2="26622.3" y2="7154.32" gradientUnits="userSpaceOnUse">
<stop stop-color="#FFC444"/>
<stop offset="1" stop-color="#F36F56"/>
</linearGradient>
</defs>
</svg>
