<svg width="271" height="279" viewBox="0 0 271 279" fill="none" xmlns="http://www.w3.org/2000/svg">
<path d="M259.641 187.071C233.348 250.145 163.31 285.479 102.574 275.948C92.6905 274.396 65.5954 269.777 41.6067 247.981C-4.57293 206.028 -14.4491 122.944 22.8032 64.3944C49.916 21.7811 97.0484 1.47857 143.232 2.68681C153.18 2.94721 192.771 0.697365 226.276 28.8429C231.197 32.9774 242.05 42.8009 251.836 58.3862C274.802 94.9823 276.776 145.966 259.641 187.071Z" fill="#F0ECE6"/>
<path d="M200.231 274.985C200.237 274.826 200.218 274.668 200.176 274.515C197.509 265.219 184.27 259.43 184.27 259.43L179.024 259.792C176.007 267.984 176.395 273.008 176.879 275.246C176.893 275.309 176.915 275.369 176.933 275.43C181.261 275.768 190.168 275.992 200.231 274.985Z" fill="#0A0A0A"/>
<path d="M176.933 275.43C177.053 275.807 177.271 276.144 177.564 276.404C177.858 276.664 178.215 276.838 178.598 276.908C184.754 278.045 194.539 277.129 198.647 276.657C199.553 276.557 200.214 275.817 200.231 274.985C190.168 275.992 181.261 275.768 176.933 275.43Z" fill="#262626"/>
<path d="M176.987 253.363L179.209 262.765C179.296 263.109 179.487 263.416 179.755 263.643C180.024 263.87 180.355 264.005 180.703 264.029C181.849 264.131 183.003 264.115 184.145 263.981C185.291 263.834 186.09 262.809 185.887 261.71L184.342 253.363H176.987Z" fill="#FFC444"/>
<path d="M222.952 275.335C217.157 275.193 214.161 274.593 212.611 274.038C212.611 274.545 212.611 275.06 212.63 275.594C212.646 275.875 212.768 276.14 212.972 276.331C213.176 276.522 213.445 276.624 213.722 276.616L245.534 276.436C246.55 276.43 247.142 275.395 246.702 274.577C242.532 274.878 231.908 275.556 222.952 275.335Z" fill="#262626"/>
<path d="M246.702 274.571C246.667 274.497 246.625 274.426 246.576 274.36C243.768 270.909 236.612 264.039 222.472 261.059L215.688 260.87C215.688 260.87 212.668 265.485 212.611 274.032C214.161 274.589 217.157 275.188 222.952 275.329C231.908 275.556 242.532 274.878 246.702 274.571Z" fill="#0A0A0A"/>
<path d="M214.431 251.839C214.506 252.283 215.435 259.038 215.796 261.657C215.844 261.966 215.994 262.249 216.219 262.462C216.445 262.674 216.734 262.803 217.04 262.828C218.196 262.95 220.065 263.06 221.7 262.765C222.581 262.606 223.221 261.861 223.221 260.995V250.392L214.431 251.839Z" fill="url(#paint0_linear_537_1655)"/>
<path d="M208.988 128.572C208.988 128.572 225.348 183.222 225.049 251.99C225.044 253.244 224.042 254.326 222.647 254.584C220.59 254.964 217.565 255.417 215.062 255.355C213.726 255.322 212.609 254.451 212.384 253.293C210.09 241.468 199.138 173.505 191.637 162.69C191.637 162.69 184.488 223.368 186.067 254.149C186.106 254.914 185.469 255.579 184.598 255.666C182.572 255.857 180.534 255.852 178.509 255.651C177.494 255.557 176.675 254.882 176.53 253.994C174.902 243.993 165.501 184.425 165.9 141.514C165.922 139.093 173.181 128.572 173.181 128.572H208.988Z" fill="#0A0A0A"/>
<path d="M155.159 50.9642C175.51 38.0558 206.155 44.5898 218.008 45.9018C221.895 46.3328 225.451 48.017 228.011 50.622C238.168 60.9543 263.354 101.378 222.555 121.315C219.835 119.3 219.115 113.581 216.699 109.007C222.534 101.506 225.994 94.0575 219.912 82.7883C219.704 83.6857 219.444 84.5698 219.134 85.4363C210.75 108.783 210.303 128.209 210.321 132.687C210.321 133.295 209.908 133.842 209.266 134.068C198.232 137.959 176.992 135.641 169.862 134.707C168.555 134.537 167.675 133.466 167.855 132.313C171.355 110.03 153.396 73.3729 148.653 64.1919C148.313 63.5344 152.477 56.3529 155.159 50.9642Z" fill="#95AE45"/>
<path d="M181.767 27.6496L179.461 44.1189C179.248 45.6314 180.262 47.0402 181.784 47.3295C184.938 47.9282 190.384 48.442 195.412 46.3677C196.969 45.7252 197.813 44.053 197.371 42.4617L193.676 21.8499L181.767 27.6496Z" fill="#FFC444"/>
<path d="M170.539 11.3619C170.413 11.7241 170.843 35.9057 170.843 35.9057L185.611 33.6299L188.847 10.2225C188.847 10.2225 172.65 5.30278 170.539 11.3619Z" fill="url(#paint1_linear_537_1655)"/>
<path d="M183.912 13.8542C184.155 14.0205 184.35 14.2493 184.479 14.5173C184.608 14.7853 184.665 15.0831 184.644 15.3807L183.964 27.5289C183.954 27.7159 183.917 27.9003 183.855 28.0766C183.501 29.0743 182.115 32.1942 178.904 31.0827C176.162 30.1349 173.633 29.3018 171.615 29.5572C170.439 29.7059 169.502 30.7405 169.527 31.841C169.576 34.1088 169.775 38.6704 170.562 42.6273C170.758 43.619 171.766 44.1947 172.862 43.9592C175.755 43.3367 181.382 41.9638 185.866 39.9005C186.603 39.5613 187.129 38.8899 187.237 38.1505C187.727 34.895 189.144 25.7709 189.96 23.2038C190.717 20.8183 193.999 19.5222 195.542 19.0363C196.122 18.8548 196.617 18.4648 196.936 17.9389C197.858 16.3924 199.144 13.1628 195.158 11.4876C194.166 11.0716 193.836 9.90725 194.386 8.90255C195.365 7.10667 196.022 4.46173 192.854 2.78157C189.647 1.08546 186.675 2.58203 184.875 3.96985C184.078 4.58544 182.976 4.72712 182.231 4.23524C181.898 4.01575 181.448 3.92994 180.86 4.16441C179.743 4.60639 178.591 4.20831 178.253 3.20361C177.673 1.48056 176.225 -0.328301 172.652 0.0458415C166.1 0.730274 164.066 7.43491 164.971 11.4816C165.876 15.5284 172.986 14.4079 176.793 12.6081C179.582 11.2891 182.541 12.9044 183.912 13.8542Z" fill="#0A0A0A"/>
<path d="M189.658 27.6954C189.658 27.6954 188.415 20.5408 191.431 18.9754C194.447 17.41 198.245 18.5254 196.381 23.5519C194.063 29.8056 189.658 27.6954 189.658 27.6954Z" fill="#FFC444"/>
<path d="M221.027 81.0423C225.474 70.3448 223.861 57.4274 223.844 57.2967L222.619 57.4194C222.635 57.5471 224.214 70.2161 219.868 80.6662L221.027 81.0423Z" fill="#717F34"/>
<path d="M131.952 114.92C131.658 122.366 131.783 130.61 132.454 139.744L139.417 140.509C139.417 140.509 142.293 129.388 146.784 116.399C139.881 117.026 134.938 115.961 131.952 114.92Z" fill="url(#paint2_linear_537_1655)"/>
<path d="M166.399 78.539C166.399 78.539 164.659 57.1181 155.085 50.9971C155.085 50.9971 133.927 64.3715 131.952 114.92C134.938 115.961 139.884 117.026 146.784 116.399C151.863 101.71 159.009 84.6301 166.399 78.539Z" fill="#95AE45"/>
<path d="M136.808 137.449C136.808 137.449 141.16 138.979 142.03 145.1C142.901 151.221 137.678 155.81 133.326 155.045C128.974 154.28 124.309 142.804 132.299 137.449C140.289 132.094 136.808 137.449 136.808 137.449Z" fill="url(#paint3_linear_537_1655)"/>
<path d="M90.2434 15.9315C90.2434 15.9315 84.0347 20.8043 75.414 24.442C70.6076 26.4693 61.2554 29.4674 60.0205 38.2234C59.3839 42.744 55.5784 46.3637 50.4557 47.0542C37.6965 48.7732 18.0342 54.5959 14.8858 74.0673C12.4846 88.9332 21.1043 94.5633 30.1501 96.5158C36.7936 97.9486 41.2092 103.629 39.8656 109.524C38.5769 115.179 40.4983 121.717 51.6446 126.884C76.6215 138.469 101.565 99.4401 101.565 99.4401L106.677 31.2963L90.2434 15.9315Z" fill="#0A0A0A"/>
<path d="M33.2524 87.739C32.8506 87.7188 32.4599 87.5986 32.1144 87.3888C26.2964 84.0574 23.194 77.1802 24.5739 70.6661C25.3975 66.764 27.5989 63.3987 30.7708 61.1878C33.0232 59.6214 35.6967 58.6636 38.2438 57.8165C42.5478 56.3868 46.9811 55.1227 51.4212 54.0731C51.7875 53.9853 52.1537 53.9005 52.5219 53.8137C55.121 53.2061 57.8101 52.5765 60.2437 51.505C63.3774 50.1291 65.6533 48.1267 66.6659 45.8659C67.2946 44.4621 67.4757 42.9097 67.651 41.4091C67.8635 39.5783 68.0839 37.6836 69.1249 36.0683C69.1308 36.0589 69.1402 36.0523 69.151 36.05C69.1617 36.0477 69.1729 36.0498 69.1822 36.0559C69.1914 36.0619 69.1978 36.0715 69.2001 36.0825C69.2024 36.0934 69.2004 36.1048 69.1944 36.1142C68.1642 37.7106 67.9448 39.5972 67.7323 41.4191C67.557 42.9266 67.3758 44.485 66.7413 45.9008C65.7199 48.1806 63.4234 50.198 60.2779 51.5828C57.8366 52.6573 55.1455 53.2869 52.5415 53.8965L51.4418 54.1549C47.0046 55.2085 42.5733 56.4676 38.2722 57.8963C35.7261 58.7414 33.0594 59.6922 30.8188 61.2576C27.6645 63.4526 25.4758 66.8009 24.6561 70.682C23.2851 77.1602 26.3728 83.9995 32.1595 87.3139C32.608 87.5714 33.4698 87.8816 33.8517 87.4137C33.8597 87.4061 33.8702 87.4019 33.8811 87.4019C33.892 87.4019 33.9025 87.4061 33.9105 87.4137C33.918 87.4216 33.9223 87.4321 33.9223 87.4431C33.9223 87.4542 33.918 87.4647 33.9105 87.4726C33.7547 87.6601 33.5197 87.739 33.2524 87.739Z" fill="white"/>
<path d="M31.7578 81.589C31.7514 81.5892 31.745 81.5879 31.7392 81.5851C31.7334 81.5823 31.7284 81.5782 31.7245 81.573C29.477 78.6198 28.3107 75.5269 28.344 72.6195C28.3841 69.2183 30.1782 66.0566 33.0279 64.3684C33.0374 64.3629 33.0487 64.3614 33.0593 64.3642C33.0699 64.367 33.079 64.3739 33.0847 64.3834C33.0875 64.3882 33.0894 64.3935 33.0902 64.399C33.0909 64.4045 33.0906 64.4101 33.0893 64.4155C33.0879 64.4209 33.0855 64.4259 33.0822 64.4304C33.0789 64.4348 33.0747 64.4385 33.07 64.4413C30.2448 66.1144 28.4673 69.2493 28.4272 72.6225C28.3939 75.5159 29.5563 78.5889 31.7901 81.5241C31.7934 81.5285 31.7958 81.5335 31.7972 81.5389C31.7986 81.5442 31.7989 81.5498 31.7982 81.5552C31.7974 81.5607 31.7957 81.566 31.7929 81.5707C31.7902 81.5755 31.7866 81.5797 31.7822 81.583C31.7748 81.5873 31.7663 81.5894 31.7578 81.589Z" fill="white"/>
<path d="M116.786 73.9486C116.786 73.9486 130.712 109.142 135.064 140.509L130.713 144.334C130.713 144.334 116.786 104.551 106.341 93.0758L116.786 73.9486Z" fill="url(#paint4_linear_537_1655)"/>
<path d="M24.8071 267.652L23.8631 274.471C23.6839 275.768 22.5244 276.788 21.0506 276.937C18.5622 277.186 14.5696 277.442 10.6622 277.079C8.94748 276.92 7.83402 275.394 8.35697 273.949C9.30884 271.315 11.052 267.364 13.5639 265.036H22.1738C23.7661 265.039 24.9991 266.262 24.8071 267.652Z" fill="#0A0A0A"/>
<path d="M92.2498 187.732L93.7031 195.246C93.7031 195.246 88.8369 238.575 87.9712 255.907C87.8351 258.623 88.6352 261.309 90.2579 263.625L98.7131 275.704L77.2078 264.55L76.7769 262.243L80.3024 257.988L75.6909 209.448C75.4206 206.597 76.0895 203.737 77.6191 201.211L82.0651 193.866L92.2498 187.732Z" fill="url(#paint5_linear_537_1655)"/>
<path d="M100.131 277.454H93.2683C91.9835 277.454 90.7721 276.937 89.9886 276.042C87.8489 273.597 83.4156 268.83 81.2964 268.705C78.4427 268.538 78.807 277.454 78.807 277.454H77.2079L75.1817 266.375C74.6725 263.587 76.2491 260.825 79.0989 259.519C79.0989 259.519 79.7511 263.759 83.2883 265.634C86.8255 267.51 97.6839 274.227 97.6839 274.227C98.6127 274.132 99.5494 274.153 100.473 274.292C102.63 274.636 102.337 277.454 100.131 277.454Z" fill="#0A0A0A"/>
<path d="M62.7879 191.301C62.7879 191.301 34.2757 238.837 29.7445 249.691C25.2133 260.545 23.6249 269.598 23.5642 270.455C23.4663 271.795 21.5733 273.08 16.3478 273.08C13.6508 273.08 12.3327 272.13 11.6834 271.211C11.4174 270.837 11.2646 270.392 11.2441 269.931C11.2235 269.47 11.3361 269.013 11.5679 268.617C13.217 265.683 18.4503 256.308 20.3893 252.055C22.7034 246.977 27.6812 223.97 30.4114 215.97C33.1417 207.97 36.2275 199.292 48.1171 191.3C48.1171 191.301 56.2785 184.278 62.7879 191.301Z" fill="url(#paint6_linear_537_1655)"/>
<path d="M80.798 113.41C88.1525 86.0179 69.5215 70.5254 69.5215 70.5254C81.2818 60.6061 102.697 56.0935 102.697 56.0935C102.697 56.0935 123.135 69.2274 120.71 79.5068C119.29 85.532 106.345 115.597 106.345 115.597C106.345 115.597 94.374 120.577 80.798 113.41Z" fill="#C32F27"/>
<path d="M64.493 126.971C67.4858 119.045 80.7983 113.41 80.7983 113.41C94.3743 120.577 106.345 115.597 106.345 115.597C106.345 115.597 109.029 124.616 107.177 132.998C105.324 141.38 93.6985 195.246 93.6985 195.246C75.3857 198.508 47.2124 191.964 47.2124 191.964C58.8787 173.757 61.5003 134.896 64.493 126.971Z" fill="#0A0A0A"/>
<path d="M89.3355 37.9919L83.356 61.5988C82.7831 63.678 84.9405 63.3378 87.3319 62.9417C91.2491 62.2932 96.2973 60.9553 97.9847 58.2764C98.1457 58.0048 98.2498 57.7021 98.2902 57.3875L100.86 41.017C101.064 39.7199 100.264 38.4578 98.9013 37.924L93.9441 35.9945C92.0354 35.2512 89.8262 36.208 89.3355 37.9919Z" fill="url(#paint7_linear_537_1655)"/>
<path d="M108.171 22.4735C108.171 22.4735 112.716 28.386 111.765 38.3791C110.814 48.3722 105.43 49.9176 101.272 48.007C97.1139 46.0964 91.4213 42.4627 88.6068 33.8804C85.7923 25.298 102.094 15.0355 108.171 22.4735Z" fill="url(#paint8_linear_537_1655)"/>
<path d="M95.3836 32.4337C95.3836 32.4337 98.2236 18.7111 109.589 25.5834L111.169 28.8209C111.169 28.8209 119.395 25.3429 114.557 18.2452C109.719 11.1474 100.152 8.59228 91.9531 14.6424C83.7545 20.6926 79.7119 25.6372 81.979 32.3748C84.2461 39.1124 89.1112 36.0873 89.1112 36.0873C89.1112 36.0873 88.8674 30.9521 91.204 29.7358C93.5406 28.5196 94.467 32.3119 94.467 32.3119L95.3836 32.4337Z" fill="#0A0A0A"/>
<path d="M93.6098 34.7553C93.6098 34.7553 95.115 27.7135 90.5387 28.0497C85.9625 28.3859 89.5163 34.7833 91.0431 37.088L93.6098 34.7553Z" fill="url(#paint9_linear_537_1655)"/>
<path fill-rule="evenodd" clip-rule="evenodd" d="M122.999 122.619C122.999 122.619 121.922 116.778 126.342 115.519C126.342 115.519 124.339 108.781 130.597 108.803C130.597 108.803 141.296 95.2518 149.925 109.142C149.925 109.142 169.237 110.339 161.598 125.234C161.598 125.234 166.661 129.85 159.295 133.571C159.295 133.571 153.341 151.808 139.92 140.056L122.999 122.619Z" fill="#0A0A0A"/>
<path d="M183.979 109.481C179.973 105.291 177.072 110.919 177.072 110.919C173.846 112.026 177.072 119.091 177.072 119.092C175.097 122.99 164.796 143.028 159.212 147.971C153.018 153.458 162.981 154.883 162.981 154.883C162.981 154.883 174.112 149.576 180.353 120.699C180.405 120.682 180.454 120.657 180.499 120.625C181.351 119.963 187.986 113.674 183.979 109.481Z" fill="url(#paint10_linear_537_1655)"/>
<path d="M119.416 148.882C114.392 144.434 105.034 125.653 101.677 118.714C102.285 117.249 104.297 111.874 101.516 110.919C101.516 110.919 98.615 105.288 94.6077 109.481C90.9118 113.348 96.2676 118.995 97.7894 120.369C100.946 136.632 112.439 154.878 112.439 154.878C112.439 154.878 125.61 154.364 119.416 148.882Z" fill="url(#paint11_linear_537_1655)"/>
<path fill-rule="evenodd" clip-rule="evenodd" d="M139.439 271.179C139.439 271.179 140.338 274.577 140.275 277.086C140.272 277.277 140.201 277.46 140.076 277.603C139.952 277.745 139.781 277.837 139.596 277.862C137.343 278.179 129.66 279.117 125.438 277.862C125.273 277.813 125.128 277.709 125.026 277.567C124.925 277.426 124.872 277.254 124.876 277.078C124.914 275.727 125.847 272.559 133.558 271.75L139.439 271.179Z" fill="#0A0A0A"/>
<path fill-rule="evenodd" clip-rule="evenodd" d="M126.172 219.214C125.223 219.845 132.381 271.065 134.117 271.437C134.117 271.437 136.101 273.316 139.162 271.175C137.399 254.481 136.322 237.552 137.27 220.244L126.172 219.214Z" fill="url(#paint12_linear_537_1655)"/>
<path fill-rule="evenodd" clip-rule="evenodd" d="M156.59 271.179C156.59 271.179 157.488 274.577 157.426 277.086C157.422 277.277 157.352 277.46 157.227 277.603C157.103 277.745 156.932 277.837 156.746 277.862C154.494 278.179 146.81 279.117 142.589 277.862C142.423 277.813 142.279 277.709 142.177 277.567C142.075 277.426 142.023 277.254 142.027 277.078C142.065 275.727 142.998 272.559 150.709 271.75L156.59 271.179Z" fill="#0A0A0A"/>
<path fill-rule="evenodd" clip-rule="evenodd" d="M143.318 219.214C142.368 219.845 149.528 271.065 151.263 271.437C151.263 271.437 153.246 273.316 156.308 271.175C154.541 254.481 153.468 237.552 154.416 220.244L143.318 219.214Z" fill="url(#paint13_linear_537_1655)"/>
<path fill-rule="evenodd" clip-rule="evenodd" d="M151.282 188.126C151.282 188.126 127.933 189.214 122.373 191.203C122.373 191.203 123.059 210.543 125.34 222.432C125.383 222.657 125.489 222.865 125.645 223.031C125.802 223.196 126.002 223.312 126.222 223.363C127.72 223.718 131.491 224.223 137.468 222.518C137.726 222.444 137.951 222.282 138.105 222.058C138.26 221.835 138.334 221.564 138.315 221.291L137.698 213.588C137.682 213.34 137.764 213.096 137.924 212.909C138.084 212.722 138.311 212.607 138.554 212.59L139.18 212.49C139.305 212.482 139.43 212.5 139.548 212.543C139.665 212.586 139.773 212.653 139.865 212.74C139.957 212.827 140.03 212.932 140.081 213.048C140.131 213.165 140.158 213.291 140.159 213.418L141.334 221.23C141.336 221.477 141.414 221.717 141.556 221.917C141.697 222.117 141.897 222.267 142.126 222.346C143.881 222.951 148.448 224.082 154.465 222.212C154.702 222.138 154.91 221.99 155.058 221.788C155.207 221.586 155.288 221.341 155.291 221.089C155.365 211.603 153.694 200.262 151.282 188.126Z" fill="#0A0A0A"/>
<path fill-rule="evenodd" clip-rule="evenodd" d="M142.53 189.794C142.53 189.794 145.48 198.154 152.603 198.734L151.028 189.2C151.028 189.2 145.512 189.158 142.53 189.794Z" fill="#F0ECE6"/>
<path fill-rule="evenodd" clip-rule="evenodd" d="M162.227 144.132C162.227 144.132 151.674 151.043 138.86 150.276C128.174 149.635 121.682 146.857 118.072 143.727C116.78 142.606 114.945 142.424 113.519 143.358C111.396 144.767 109.442 146.423 107.698 148.295C107.429 148.578 107.26 148.943 107.216 149.335C107.172 149.726 107.257 150.121 107.456 150.458C110.569 155.581 113.888 159.163 117.407 161.246C118.598 162.584 119.237 164.338 119.19 166.143L118.54 191.309C118.53 191.646 118.639 191.975 118.846 192.238C119.053 192.501 119.346 192.68 119.671 192.743C124.355 193.649 142.132 196.802 153.182 194.816V167.678C153.187 166.689 153.451 165.719 153.948 164.869C154.445 164.019 155.157 163.32 156.009 162.846C158.33 161.533 161.787 158.962 165.242 154.12L162.227 144.132Z" fill="#FF9F1C"/>
<path fill-rule="evenodd" clip-rule="evenodd" d="M143.923 138.328L145.082 151.284C145.082 151.284 138.369 155.281 132.594 151.783L133.62 140.466L143.923 138.328Z" fill="url(#paint14_linear_537_1655)"/>
<path fill-rule="evenodd" clip-rule="evenodd" d="M131.662 114.377C131.662 114.377 111.381 129.828 122.835 140.983C133.645 151.512 143.773 140.038 143.773 140.038C143.773 140.038 151.519 136.125 151.229 130.839C150.939 125.553 135.757 113.03 131.662 114.377Z" fill="url(#paint15_linear_537_1655)"/>
<path fill-rule="evenodd" clip-rule="evenodd" d="M146.536 136.687C145.793 136.325 145.131 135.695 144.64 134.761C143.909 133.37 143.825 131.68 144.248 130.161C144.356 129.771 144.488 129.329 144.282 128.982C144.032 128.566 143.462 128.549 142.986 128.499C142.253 128.42 141.552 128.149 140.952 127.712C140.351 127.276 139.873 126.688 139.562 126.007C139.251 125.325 139.119 124.573 139.178 123.824C139.237 123.076 139.486 122.355 139.899 121.733C137.941 121.218 137.728 119.65 136.342 118.671C135.069 117.773 133.233 118.535 131.837 117.95C130.804 117.518 128.659 115.911 128.951 114.505C129.082 113.875 130.866 112.539 131.443 112.123C134.028 110.26 136.848 110.819 139.135 112.921C145.732 118.993 151.64 124.876 152.899 127.948C153.781 130.102 153.724 132.878 152.329 134.796C150.875 136.787 148.441 137.618 146.536 136.687Z" fill="#0A0A0A"/>
<path fill-rule="evenodd" clip-rule="evenodd" d="M141.448 141.23L145.99 135.643C145.99 135.643 151.147 135.18 149.34 138.462C147.533 141.743 142.879 142.224 141.448 141.23Z" fill="url(#paint16_linear_537_1655)"/>
<path d="M74.4322 71.0782C72.2552 70.0415 69.5406 70.3648 67.6476 71.7686C63.8803 74.5622 55.2282 82.922 54.3292 101.185C53.1658 124.609 93.7184 118.499 93.7184 118.499L96.0354 113.41C96.0354 113.41 67.0689 112.392 67.0689 102.208C67.0689 95.0343 75.48 86.6984 79.218 83.3511C80.6497 82.068 81.2745 80.2112 80.7525 78.4742C79.8594 75.512 77.3407 72.462 74.4322 71.0782Z" fill="url(#paint17_linear_537_1655)"/>
<path d="M90.723 113.41C90.723 113.41 94.8782 111.369 98.3537 110.351C101.829 109.333 102.989 110.351 102.989 110.351C102.989 110.351 99.5122 111.369 98.3537 112.387C97.1952 113.406 103.9 113.414 106.341 113.41C108.781 113.406 109.212 118.415 106.68 119.984C104.147 121.553 97.1952 124.608 90.2432 118.498L90.723 113.41Z" fill="url(#paint18_linear_537_1655)"/>
<path d="M216.994 108.851C218.063 113.205 220.632 118.068 222.555 121.316C216.036 122.912 208.276 123.688 199.052 123.375C197.297 123.316 196.016 123.155 194.488 124.033L191.55 126.058L189.346 114.199C189.346 114.199 204.606 115.535 216.994 108.851Z" fill="url(#paint19_linear_537_1655)"/>
<path d="M192.333 125.518C189.348 127.936 182.202 127.203 178.482 126.18C173.967 125.128 173.085 122.488 173.646 119.217C177.881 117.83 181.819 115.639 185.254 112.76C184.536 109.239 183.065 108.142 181.321 107.929C187.022 109.372 191.518 111.538 193.988 114.92L192.333 125.518Z" fill="url(#paint20_linear_537_1655)"/>
<path d="M155.857 24.5437C155.599 19.5971 152.298 15.4406 148.189 14.9148C144.921 14.4958 142.013 16.3784 140.465 19.4235C138.913 16.2308 135.978 14.0498 132.648 14.1426C128.413 14.2603 124.973 18.1783 124.702 23.2218C124.523 26.5521 125.709 29.6141 127.656 31.6784L139.612 41.5987C139.847 41.8061 140.145 41.9244 140.456 41.9335C140.767 41.9426 141.071 41.8419 141.318 41.6485L153.027 32.5973C154.895 30.7146 156.029 27.8122 155.857 24.5437Z" fill="#C32F27"/>
<defs>
<linearGradient id="paint0_linear_537_1655" x1="45094.6" y1="31409.6" x2="44383.4" y2="35753.1" gradientUnits="userSpaceOnUse">
<stop stop-color="#FFC444"/>
<stop offset="1" stop-color="#F36F56"/>
</linearGradient>
<linearGradient id="paint1_linear_537_1655" x1="107971" y1="-49808.8" x2="113605" y2="-41285.1" gradientUnits="userSpaceOnUse">
<stop stop-color="#FFC444"/>
<stop offset="1" stop-color="#F36F56"/>
</linearGradient>
<linearGradient id="paint2_linear_537_1655" x1="145.148" y1="58.005" x2="125.124" y2="250.45" gradientUnits="userSpaceOnUse">
<stop stop-color="#FEBBBA"/>
<stop offset="1" stop-color="#FF928E"/>
</linearGradient>
<linearGradient id="paint3_linear_537_1655" x1="50175.7" y1="17779.9" x2="45638.6" y2="49164.8" gradientUnits="userSpaceOnUse">
<stop stop-color="#FEBBBA"/>
<stop offset="1" stop-color="#FF928E"/>
</linearGradient>
<linearGradient id="paint4_linear_537_1655" x1="101562" y1="-59813.1" x2="11998.1" y2="298071" gradientUnits="userSpaceOnUse">
<stop stop-color="#FEBBBA"/>
<stop offset="1" stop-color="#FF928E"/>
</linearGradient>
<linearGradient id="paint5_linear_537_1655" x1="118554" y1="290186" x2="54250.2" y2="93004.1" gradientUnits="userSpaceOnUse">
<stop stop-color="#FEBBBA"/>
<stop offset="1" stop-color="#FF928E"/>
</linearGradient>
<linearGradient id="paint6_linear_537_1655" x1="240093" y1="282526" x2="211175" y2="77327.4" gradientUnits="userSpaceOnUse">
<stop stop-color="#FEBBBA"/>
<stop offset="1" stop-color="#FF928E"/>
</linearGradient>
<linearGradient id="paint7_linear_537_1655" x1="90994" y1="23897.5" x2="89348.9" y2="16182.6" gradientUnits="userSpaceOnUse">
<stop stop-color="#FEBBBA"/>
<stop offset="1" stop-color="#FF928E"/>
</linearGradient>
<linearGradient id="paint8_linear_537_1655" x1="77472.5" y1="26043.1" x2="77054" y2="6442.63" gradientUnits="userSpaceOnUse">
<stop stop-color="#FEBBBA"/>
<stop offset="1" stop-color="#FF928E"/>
</linearGradient>
<linearGradient id="paint9_linear_537_1655" x1="18263" y1="4896.56" x2="17368.8" y2="-545.42" gradientUnits="userSpaceOnUse">
<stop stop-color="#FEBBBA"/>
<stop offset="1" stop-color="#FF928E"/>
</linearGradient>
<linearGradient id="paint10_linear_537_1655" x1="177.616" y1="115.136" x2="154.725" y2="174.03" gradientUnits="userSpaceOnUse">
<stop stop-color="#A22B25"/>
<stop offset="1" stop-color="#C0423C"/>
</linearGradient>
<linearGradient id="paint11_linear_537_1655" x1="8275.58" y1="56425.5" x2="-2758.44" y2="73514.7" gradientUnits="userSpaceOnUse">
<stop stop-color="#A22B25"/>
<stop offset="1" stop-color="#C0423C"/>
</linearGradient>
<linearGradient id="paint12_linear_537_1655" x1="4547.68" y1="139295" x2="-4345.35" y2="102243" gradientUnits="userSpaceOnUse">
<stop stop-color="#A22B25"/>
<stop offset="1" stop-color="#C0423C"/>
</linearGradient>
<linearGradient id="paint13_linear_537_1655" x1="6858.26" y1="139769" x2="-2034.67" y2="102717" gradientUnits="userSpaceOnUse">
<stop stop-color="#A22B25"/>
<stop offset="1" stop-color="#C0423C"/>
</linearGradient>
<linearGradient id="paint14_linear_537_1655" x1="-1984.02" y1="20803.3" x2="-3986.45" y2="14506" gradientUnits="userSpaceOnUse">
<stop stop-color="#A22B25"/>
<stop offset="1" stop-color="#C0423C"/>
</linearGradient>
<linearGradient id="paint15_linear_537_1655" x1="-46650.5" y1="-237343" x2="-46829.4" y2="-224895" gradientUnits="userSpaceOnUse">
<stop stop-color="#A22B25"/>
<stop offset="1" stop-color="#C0423C"/>
</linearGradient>
<linearGradient id="paint16_linear_537_1655" x1="-17452.3" y1="-53866" x2="-17852.9" y2="-51231.5" gradientUnits="userSpaceOnUse">
<stop stop-color="#A22B25"/>
<stop offset="1" stop-color="#C0423C"/>
</linearGradient>
<linearGradient id="paint17_linear_537_1655" x1="58578" y1="35564.6" x2="82036.8" y2="63516.6" gradientUnits="userSpaceOnUse">
<stop stop-color="#FEBBBA"/>
<stop offset="1" stop-color="#FF928E"/>
</linearGradient>
<linearGradient id="paint18_linear_537_1655" x1="26808.4" y1="7875.53" x2="31762.2" y2="18086.8" gradientUnits="userSpaceOnUse">
<stop stop-color="#FEBBBA"/>
<stop offset="1" stop-color="#FF928E"/>
</linearGradient>
<linearGradient id="paint19_linear_537_1655" x1="62672.7" y1="22780.9" x2="69531.4" y2="14578" gradientUnits="userSpaceOnUse">
<stop stop-color="#FFC444"/>
<stop offset="1" stop-color="#F36F56"/>
</linearGradient>
<linearGradient id="paint20_linear_537_1655" x1="37526.3" y1="23598.3" x2="44684.4" y2="18866.4" gradientUnits="userSpaceOnUse">
<stop stop-color="#FFC444"/>
<stop offset="1" stop-color="#F36F56"/>
</linearGradient>
</defs>
</svg>
