<svg width="271" height="279" viewBox="0 0 271 279" fill="none" xmlns="http://www.w3.org/2000/svg">
<path d="M156.218 0.0248391C192.385 0.679723 248.342 14.7826 264.448 51.0252C270.077 63.683 269.689 82.2924 268.932 119.51C268.708 130.449 268.336 146.393 265.729 166.176C260.313 207.273 256.627 235.248 242.675 251.539C207.713 292.358 81.424 291.179 27.4951 217.691C-1.92351 177.604 -6.4496 120.578 20.4508 73.4505C50.0664 21.5614 107.799 -0.851989 156.218 0.0248391Z" fill="#F0ECE6"/>
<path d="M198.372 114.504C197.565 112.385 194.64 108.394 192.641 106.986L195.297 110.392C195.347 110.463 195.369 110.552 195.358 110.639C195.346 110.726 195.302 110.806 195.235 110.861C195.168 110.916 195.083 110.942 194.997 110.934C194.911 110.927 194.832 110.885 194.775 110.819L191.392 106.479C191.305 106.484 191.219 106.508 191.142 106.551C191.065 106.593 190.998 106.652 190.945 106.724C190.91 106.772 190.877 106.822 190.848 106.874L194.255 111.246C194.309 111.317 194.334 111.407 194.324 111.496C194.313 111.586 194.269 111.667 194.201 111.724C194.132 111.78 194.045 111.806 193.957 111.797C193.87 111.788 193.79 111.743 193.734 111.674L190.679 107.752C190.839 109.413 193.17 111.781 195.222 114.096C197.745 116.945 198.638 118.077 198.638 118.077C198.638 118.077 211.176 133.366 211.413 133.642C214.775 137.556 214.371 132.876 208.442 127.378C202.513 121.88 199.481 117.419 198.372 114.504Z" fill="#0A0A0A"/>
<path d="M142.257 116.974L126.765 114.331L117.5 120.021L101.885 114.763C101.885 114.763 88.1046 116.636 87.8057 116.537L102.55 257.4C106.515 259.627 111.594 261.311 118.018 261.57C123.302 261.789 128.594 261.512 133.828 260.743C138.236 250.293 151.199 218.092 158.398 184.685C167.161 144.004 142.257 116.974 142.257 116.974Z" fill="#F0ECE6"/>
<path d="M155.724 126.148C155.735 125.722 159.771 118.854 159.771 118.854C159.771 118.854 170.714 123.93 180.431 148.463C190.149 172.995 191.285 196.815 187.593 204.344C183.902 211.873 159.494 196.949 154.659 186.5C149.823 176.05 155.724 126.148 155.724 126.148Z" fill="#95AE45"/>
<path d="M171.31 167.11C167.948 151.908 159.771 118.855 159.771 118.855L131.088 115.01C131.088 115.01 155.032 152.884 152.322 184.685C150.012 211.784 135.436 250.292 131.174 261.092C134.303 260.735 137.41 260.197 140.48 259.479C145.548 246.469 174.417 181.159 171.31 167.11Z" fill="#95AE45"/>
<path d="M103.704 89.538C103.704 89.538 101.63 111.541 100.987 115.227L118.335 122.094L127.138 116.098L122.103 92.4431L103.704 89.538Z" fill="#FFC444"/>
<path d="M121.75 72.294C122.041 72.512 123.921 86.6517 123.76 89.0145C123.599 91.3772 126.027 96.6899 126.027 96.6899C126.027 96.6899 118.31 101.277 114.21 100.472C110.11 99.6668 103.791 90.7184 102.656 87.2927C101.521 83.8669 108.629 75.9387 108.629 75.9387L121.75 72.294Z" fill="#FFC444"/>
<path d="M103.774 95.4917C103.774 95.4917 107.074 106.972 107.981 107.364C115.27 110.52 124.937 112.579 127.885 106.882C129.708 103.355 128.182 98.152 124.87 93.8306C124.332 94.3919 120.277 98.4934 114.867 97.7778C109.331 97.0463 104.624 91.5694 104.306 84.5239C104.306 84.5239 103.6 82.7155 105.436 82.0188C107.272 81.3221 116.342 76.4453 118.439 76.5896C120.537 76.7339 123.201 77.6575 124.427 77.6327C125.653 77.6078 128.781 75.5705 128.46 71.4202C128.139 67.27 124.772 66.9057 124.772 66.9057C125.325 66.7136 128.381 65.587 129.773 62.3185C131.24 58.8749 130.318 54.3235 128.069 53.2168C126.281 52.337 124.472 54.0389 115.771 60.1339C108.337 65.3401 104.62 67.9437 102.819 69.0644C96.0263 73.2913 93.2198 74.1751 91.8622 77.7541C90.6006 81.0822 91.5313 84.2472 91.8137 85.2056C94.132 93.0573 103.163 95.3464 103.774 95.4917Z" fill="#0A0A0A"/>
<path d="M103.528 92.4163C103.528 92.4163 102.409 89.4773 100.793 90.2785C99.1773 91.0797 102.472 95.5206 104.8 96.2501L103.528 92.4163Z" fill="url(#paint0_radial_537_731)"/>
<path d="M154.379 151.922C154.379 151.922 156.781 139.934 156.822 139.498C156.852 139.159 143.258 122.352 137.198 115.255L129.22 113.55C129.22 113.55 154.193 152.884 151.482 184.686C149.815 204.228 142.61 229.707 136.653 246.448C161.77 193.946 164.882 161.969 164.882 161.969L154.379 151.922Z" fill="#748431"/>
<path d="M116.118 126.665L112.261 118.257C112.261 118.257 116.497 116.084 122.832 117.882L120.857 125.937C120.779 126.499 120.522 127.019 120.126 127.415C119.73 127.811 119.216 128.061 118.667 128.126V128.126C118.146 128.188 117.62 128.08 117.163 127.817C116.705 127.555 116.34 127.152 116.118 126.665V126.665Z" fill="#C32F27"/>
<path d="M119.903 115.952L127.685 127.241L131.088 115.01L127.141 110.468L119.903 115.952Z" fill="white"/>
<path d="M100.702 111.208L98.2271 115.255L109.767 127.896L114.621 116.538L100.702 111.208Z" fill="white"/>
<path d="M108.812 239.827C108.538 246.616 108.041 253.236 107.281 259.552C101.153 257.357 96.9783 253.759 94.2844 250.586C90.2027 230.331 81.6804 191.688 70.7931 162.378C68.2321 155.484 65.5382 149.11 62.7443 143.611C61.661 141.484 61.0464 139.14 60.944 136.743C60.8416 134.346 61.254 131.955 62.152 129.74C63.05 127.524 64.4116 125.538 66.1406 123.922C67.8695 122.306 69.9236 121.099 72.1575 120.387C79.8424 117.939 89.012 115.749 98.2253 115.252C98.2253 115.252 111.109 183.314 108.812 239.827Z" fill="#95AE45"/>
<path d="M108.413 246.448C108.413 246.448 118.193 144.454 98.2233 115.255L90.1338 138.817L100.359 151.922L92.9839 164.591C92.9839 164.591 110.166 196.565 108.413 246.448Z" fill="#748431"/>
<path d="M204.168 145.227C204.168 145.227 210.62 139.237 211.459 134.22C212.298 129.203 209.906 125.075 209.235 125.232C208.563 125.389 204.655 126.035 204.746 129.332C204.836 132.628 203.531 137.147 202.626 138.81C201.722 140.472 200.8 144.557 200.8 144.557L204.168 145.227Z" fill="#FFC444"/>
<path d="M206.166 145.29L198.832 143.224C194.647 150.037 191.255 155.845 188.775 160.175C178.698 177.778 174.97 186.237 175.277 195.443C175.363 198.02 175.614 203.498 179.08 205.595C179.588 205.903 181.174 206.748 184.356 206.218C191.262 205.066 195.771 199.086 197.278 197.087C203.582 188.726 207.289 169.634 206.166 145.29Z" fill="#95AE45"/>
<path d="M196.353 106.329C194.185 111.206 187.267 112.044 187.267 112.044C186.603 111.996 186.096 111.729 185.714 111.729C185.6 111.729 185.477 111.589 185.35 111.499L185.617 111.161L191.582 103.555C192.716 102.926 194.326 102.42 195.479 102.574C195.512 102.441 195.553 102.362 195.603 102.208C195.681 102.243 195.757 102.283 195.83 102.328C196.101 102.494 196.335 102.716 196.516 102.982C196.697 103.247 196.821 103.549 196.88 103.867V103.867C196.983 104.204 196.85 105.217 196.353 106.329Z" fill="#C32F27"/>
<path d="M195.686 105.574C193.518 110.451 186.6 111.301 186.6 111.301C186.268 111.281 185.938 111.233 185.613 111.158L191.578 103.552L192.698 102.126C193.795 101.805 194.918 101.728 195.599 102.147C196.329 102.598 196.549 103.631 195.686 105.574Z" fill="#FF9F1C"/>
<path opacity="0.5" d="M108.812 239.827C108.538 246.616 108.041 253.236 107.281 259.552C101.153 257.357 96.9781 253.759 94.2842 250.586C90.2026 230.331 81.6802 191.688 70.793 162.378C71.6867 160.822 72.9706 161.274 74.7475 164.406C74.7475 164.406 76.4816 174.6 83.3737 177.989C90.2657 181.378 97.7487 198.11 95.8922 208.78C94.1775 218.684 106.764 230.205 108.812 239.827Z" fill="#748431"/>
<path d="M120.668 126.611L116.435 127.117C116.435 127.117 117.197 186.771 117.89 190.191C118.583 193.611 124.204 209.388 126.513 210.982C128.823 212.577 137.509 198.414 139.609 190.435C141.709 182.456 120.668 126.611 120.668 126.611Z" fill="#C32F27"/>
<path d="M1.70893 271.035L0 264.321L139.247 254.923L271 264.952L268.364 272.904L1.70893 271.035Z" fill="url(#paint1_radial_537_731)"/>
<path d="M27.8815 228.667C28.8888 228.624 259.503 229.625 259.503 229.625L271 265.604L0 264.973L27.8815 228.667Z" fill="#0A0A0A"/>
<path d="M259.503 229.625C259.503 229.625 28.8887 228.624 27.8814 228.667L23.9541 233.782C36.2786 244.177 47.029 247.804 54.4189 249.249C78.4235 253.941 90.0648 240.135 119.923 242.988C138.757 244.787 136.141 250.473 154.523 252.932C193.34 258.123 209.559 233.382 234.471 241.147C242.405 243.62 252.358 249.747 262.093 265.583L271.001 265.604L259.503 229.625Z" fill="#0A0A0A"/>
<path d="M232.334 254.297C227.865 255.591 222.658 256.38 215.656 256.404V256.686H213.989V256.404C173.976 256.296 177.236 228.519 177.236 228.519C177.644 231.043 181.046 232.699 185.673 233.767C194.877 235.903 208.987 235.752 213.989 235.614V235.551C213.989 235.551 214.214 235.566 214.823 235.587C215.43 235.566 215.656 235.551 215.656 235.551V235.614C223.323 235.82 251.21 236.061 252.431 228.519C252.431 228.519 254.738 247.805 232.334 254.297Z" fill="url(#paint2_linear_537_731)"/>
<path d="M214.809 237.371C235.713 237.371 252.658 233.733 252.658 229.246C252.658 224.759 235.713 221.122 214.809 221.122C193.906 221.122 176.96 224.759 176.96 229.246C176.96 233.733 193.906 237.371 214.809 237.371Z" fill="url(#paint3_linear_537_731)"/>
<path style="mix-blend-mode:multiply" opacity="0.9" d="M215.486 235.915C235.98 235.915 252.594 232.58 252.594 228.466C252.594 224.352 235.98 221.016 215.486 221.016C194.992 221.016 178.379 224.352 178.379 228.466C178.379 232.58 194.992 235.915 215.486 235.915Z" fill="url(#paint4_linear_537_731)"/>
<path d="M223.56 237.109C222.454 236.341 223.233 232.089 225.403 228.97C228.475 224.547 234.471 222.208 235.891 221.69C237.435 221.127 238.802 220.807 239.979 219.432C241.678 217.447 241.726 214.74 242.405 214.772C242.914 214.796 242.736 216.298 243.734 216.891C245.112 217.71 246.951 215.735 248.348 216.653C248.952 217.051 249.144 217.77 249.162 217.848C249.483 219.114 248.304 220.01 248.642 220.622C249.014 221.296 250.539 220.386 251.816 221.089C253.236 221.871 254.026 224.473 253.242 226.16C252.295 228.2 249.443 228.045 249.276 229.536C249.152 230.64 250.676 231.077 250.795 232.265C250.973 234.056 247.841 236.568 244.408 237.404C237.453 239.095 233.259 232.957 227.31 235.485C225.363 236.308 224.283 237.612 223.56 237.109Z" fill="#748431"/>
<path d="M230.284 233.058C233.389 232.64 234.598 235.371 239.417 235.867C243.43 236.279 247.666 234.908 247.981 233.125C248.187 231.967 246.596 231.44 246.701 229.922C246.858 227.673 250.48 226.953 250.33 225.408C250.196 224.034 247.287 224.114 246.565 222.018C246.017 220.425 247.273 219.181 246.605 218.435C245.789 217.523 243.719 219.168 242.065 218.34C241.693 218.147 241.375 217.86 241.141 217.506C240.853 218.205 240.462 218.854 239.981 219.431C238.803 220.806 237.437 221.123 235.893 221.689C234.473 222.207 228.477 224.546 225.405 228.969C223.238 232.088 222.459 236.34 223.562 237.108C223.986 237.407 224.532 237.077 225.302 236.59C227.178 234.038 228.915 233.242 230.284 233.058Z" fill="#95AE45"/>
<path d="M223.337 239.693C221.641 238.777 217.297 236.105 215.557 230.88C212.719 222.36 218.589 212.391 222.72 212.136C224.116 212.049 225.284 213.072 227.755 212.561C229.453 212.208 229.683 211.565 231.386 211.404C232.933 211.258 235.268 211.552 235.834 212.851C236.222 213.752 235.536 214.604 236.003 215.049C236.56 215.579 237.702 214.51 238.632 214.844C239.99 215.332 240.891 218.825 239.928 221.42C238.24 225.976 231.992 224.683 227.376 229.541C224.497 232.57 223.605 236.574 223.337 239.693Z" fill="#95AE45"/>
<path style="mix-blend-mode:multiply" opacity="0.3" d="M222.457 238.185C222.457 238.185 218.423 231.391 220.367 224.408C222.311 217.425 224.26 218.371 225.168 217.939C226.075 217.507 224.077 220.51 223.108 222.816C222.14 225.122 219.9 227.179 222.457 238.185Z" fill="url(#paint5_linear_537_731)"/>
<path style="mix-blend-mode:multiply" opacity="0.3" d="M238.629 214.844C237.7 214.51 236.557 215.579 236 215.049C235.534 214.604 236.225 213.755 235.832 212.851C235.266 211.557 232.931 211.259 231.384 211.404C229.681 211.564 229.451 212.208 227.753 212.561C225.282 213.072 224.114 212.049 222.718 212.136C218.664 212.386 212.933 221.996 215.408 230.409C214.978 227.197 215.093 223.342 216.864 219.727C217.216 219.007 219.775 213.776 222.774 213.967C224.316 214.067 224.741 215.525 226.483 215.526C228.996 215.526 230.012 212.494 231.599 212.919C233.106 213.323 232.763 216.212 234.658 216.938C236.009 217.454 236.918 216.271 238.039 216.62C238.865 216.877 239.673 217.925 240.108 220.832C240.756 218.323 239.891 215.297 238.629 214.844Z" fill="url(#paint6_linear_537_731)"/>
<path d="M208.391 239.619C209.496 238.851 208.718 234.599 206.547 231.48C203.474 227.057 197.478 224.718 196.059 224.2C194.514 223.637 193.148 223.318 191.97 221.942C190.271 219.957 190.223 217.25 189.544 217.282C189.035 217.306 189.214 218.808 188.216 219.401C186.837 220.22 184.998 218.245 183.601 219.163C182.997 219.561 182.805 220.28 182.787 220.358C182.466 221.625 183.646 222.52 183.308 223.132C182.935 223.806 181.41 222.897 180.134 223.599C178.713 224.381 177.924 226.983 178.707 228.675C179.655 230.715 182.506 230.56 182.673 232.051C182.797 233.155 181.273 233.592 181.154 234.78C180.976 236.572 184.108 239.083 187.541 239.919C194.497 241.611 198.691 235.472 204.639 238C206.589 238.818 207.667 240.122 208.391 239.619Z" fill="#748431"/>
<path d="M201.671 235.568C198.566 235.15 197.358 237.881 192.538 238.377C188.525 238.789 184.289 237.418 183.974 235.635C183.769 234.477 185.359 233.95 185.254 232.432C185.097 230.183 181.475 229.463 181.625 227.918C181.759 226.544 184.668 226.624 185.39 224.528C185.939 222.935 184.682 221.691 185.35 220.945C186.166 220.034 188.237 221.678 189.89 220.85C190.262 220.657 190.58 220.37 190.814 220.016C191.104 220.715 191.497 221.364 191.979 221.941C193.157 223.316 194.523 223.633 196.068 224.199C197.487 224.717 203.483 227.056 206.556 231.479C208.723 234.598 209.501 238.85 208.399 239.618C207.975 239.917 207.429 239.587 206.659 239.1C204.777 236.548 203.036 235.752 201.671 235.568Z" fill="#95AE45"/>
<path d="M208.615 242.205C210.309 241.287 214.654 238.615 216.394 233.39C219.231 224.87 213.361 214.901 209.23 214.646C207.835 214.559 206.666 215.582 204.195 215.071C202.498 214.719 202.267 214.075 200.564 213.914C199.018 213.768 196.682 214.063 196.117 215.361C195.728 216.257 196.415 217.114 195.949 217.559C195.391 218.09 194.249 217.02 193.319 217.354C191.96 217.842 191.06 221.335 192.022 223.931C193.71 228.486 199.959 227.193 204.575 232.051C207.453 235.081 208.345 239.08 208.615 242.205Z" fill="#95AE45"/>
<path d="M209.494 240.695C209.494 240.695 213.528 233.901 211.584 226.918C209.641 219.936 207.69 220.881 206.783 220.449C205.875 220.017 207.874 223.02 208.843 225.326C209.811 227.632 212.05 229.689 209.494 240.695Z" fill="url(#paint7_linear_537_731)"/>
<path style="mix-blend-mode:multiply" opacity="0.3" d="M193.319 217.354C194.25 217.02 195.391 218.09 195.949 217.559C196.416 217.114 195.725 216.265 196.117 215.361C196.683 214.063 199.018 213.769 200.564 213.914C202.267 214.074 202.498 214.719 204.196 215.071C206.666 215.582 207.835 214.559 209.23 214.646C213.286 214.897 219.015 224.507 216.541 232.919C216.971 229.707 216.856 225.852 215.086 222.237C214.733 221.517 212.17 216.286 209.175 216.477C207.632 216.577 207.208 218.035 205.466 218.036C202.953 218.036 201.936 215.004 200.35 215.429C198.843 215.833 199.185 218.722 197.291 219.448C195.939 219.964 195.03 218.781 193.909 219.13C193.083 219.387 192.277 220.435 191.841 223.342C191.195 220.833 192.058 217.807 193.319 217.354Z" fill="url(#paint8_linear_537_731)"/>
<path d="M237.426 213.606C241.89 217.698 242.084 224.939 237.863 229.778C233.641 234.617 226.606 235.224 222.142 231.131L237.426 213.606Z" fill="#C32F27"/>
<path style="mix-blend-mode:multiply" opacity="0.5" d="M237.426 213.606C241.367 217.22 241.141 224.074 236.92 228.914C232.7 233.754 226.084 234.746 222.143 231.131L237.426 213.606Z" fill="url(#paint9_linear_537_731)"/>
<path style="mix-blend-mode:soft-light" d="M236.516 214.651C239.881 217.736 239.774 223.835 236.071 228.081C232.368 232.327 226.472 233.114 223.106 230.027L236.516 214.651Z" fill="url(#paint10_linear_537_731)"/>
<path d="M231.499 221.13L230.381 222.417L235.543 227.151C236.651 225.821 237.422 224.23 237.785 222.52L231.499 221.13Z" fill="#C32F27"/>
<path d="M230.796 230.39C232.414 229.866 233.879 228.938 235.06 227.688L229.904 222.959L228.784 224.243L230.796 230.39Z" fill="#C32F27"/>
<path d="M228.1 225.029L224.302 229.386C225.712 230.68 227.783 231.091 229.88 230.637L228.1 225.029Z" fill="#C32F27"/>
<path d="M232.183 220.346L237.937 221.562C238.199 219.304 237.71 217.282 236.125 215.826L232.183 220.346Z" fill="#C32F27"/>
<g style="mix-blend-mode:multiply" opacity="0.2">
<path style="mix-blend-mode:multiply" opacity="0.2" d="M231.499 221.13L230.381 222.417L235.543 227.151C236.651 225.821 237.422 224.23 237.785 222.52L231.499 221.13Z" fill="url(#paint11_linear_537_731)"/>
<path style="mix-blend-mode:multiply" opacity="0.2" d="M230.796 230.39C232.414 229.866 233.879 228.938 235.06 227.688L229.904 222.959L228.784 224.243L230.796 230.39Z" fill="url(#paint12_linear_537_731)"/>
<path style="mix-blend-mode:multiply" opacity="0.2" d="M228.1 225.029L224.302 229.386C225.712 230.68 227.783 231.091 229.88 230.637L228.1 225.029Z" fill="url(#paint13_linear_537_731)"/>
<path style="mix-blend-mode:multiply" opacity="0.2" d="M232.183 220.346L237.937 221.562C238.199 219.304 237.71 217.282 236.125 215.826L232.183 220.346Z" fill="url(#paint14_linear_537_731)"/>
</g>
<path d="M212.32 229.164C209.008 234.276 202.048 235.507 196.775 231.915C191.501 228.322 189.913 221.265 193.226 216.151L212.32 229.164Z" fill="#C32F27"/>
<path style="mix-blend-mode:multiply" opacity="0.5" d="M212.32 229.164C209.394 233.68 202.748 234.428 197.472 230.835C192.197 227.242 190.298 220.667 193.224 216.151L212.32 229.164Z" fill="url(#paint15_linear_537_731)"/>
<path style="mix-blend-mode:soft-light" d="M211.181 228.387C208.683 232.245 202.783 233.006 198.157 229.853C193.531 226.7 191.93 220.828 194.429 216.971L211.181 228.387Z" fill="url(#paint16_linear_537_731)"/>
<path d="M204.213 224.22L202.811 223.265L198.979 229.181C200.421 230.116 202.066 230.671 203.768 230.796L204.213 224.22Z" fill="#C32F27"/>
<path d="M195.175 224.83C195.912 226.398 197.017 227.753 198.392 228.773L202.22 222.865L200.821 221.911L195.175 224.83Z" fill="#C32F27"/>
<path d="M199.966 221.327L195.221 218.092C194.174 219.709 194.072 221.869 194.809 223.933L199.966 221.327Z" fill="#C32F27"/>
<path d="M205.067 224.802L204.715 230.818C206.932 230.761 208.814 229.977 209.992 228.159L205.067 224.802Z" fill="#C32F27"/>
<g style="mix-blend-mode:multiply" opacity="0.2">
<g style="mix-blend-mode:multiply" opacity="0.2">
<path d="M204.213 224.22L202.811 223.265L198.979 229.181C200.421 230.116 202.066 230.671 203.768 230.796L204.213 224.22Z" fill="#FF9F1C"/>
</g>
<g style="mix-blend-mode:multiply" opacity="0.2">
<path d="M195.175 224.83C195.912 226.398 197.017 227.753 198.392 228.773L202.22 222.865L200.821 221.911L195.175 224.83Z" fill="#FF9F1C"/>
</g>
<g style="mix-blend-mode:multiply" opacity="0.2">
<path d="M199.966 221.327L195.221 218.092C194.174 219.709 194.072 221.869 194.809 223.933L199.966 221.327Z" fill="#FF9F1C"/>
</g>
<path style="mix-blend-mode:multiply" opacity="0.2" d="M205.067 224.802L204.715 230.818C206.932 230.761 208.814 229.977 209.992 228.159L205.067 224.802Z" fill="url(#paint17_linear_537_731)"/>
</g>
<path d="M230.276 243.226C231.381 242.457 230.603 238.206 228.432 235.087C225.36 230.665 219.363 228.326 217.944 227.807C216.401 227.244 215.033 226.924 213.856 225.549C212.156 223.564 212.109 220.857 211.43 220.889C210.921 220.913 211.1 222.415 210.102 223.008C208.723 223.827 206.885 221.851 205.487 222.77C204.884 223.168 204.692 223.888 204.673 223.964C204.354 225.23 205.533 226.126 205.194 226.738C204.821 227.412 203.296 226.502 202.02 227.205C200.599 227.987 199.81 230.589 200.593 232.276C201.541 234.317 204.392 234.161 204.56 235.652C204.684 236.757 203.159 237.193 203.041 238.381C202.862 240.172 205.995 242.683 209.428 243.519C216.383 245.211 220.577 239.073 226.526 241.602C228.474 242.425 229.553 243.729 230.276 243.226Z" fill="#95AE45"/>
<path d="M223.557 239.175C220.456 238.757 219.243 241.489 214.423 241.984C210.411 242.397 206.174 241.025 205.859 239.243C205.654 238.084 207.245 237.557 207.14 236.039C206.983 233.79 203.361 233.071 203.51 231.525C203.644 230.151 206.554 230.232 207.277 228.136C207.824 226.543 206.567 225.298 207.235 224.553C208.051 223.642 210.122 225.286 211.777 224.458C212.148 224.265 212.465 223.978 212.699 223.625C212.989 224.324 213.382 224.973 213.864 225.549C215.042 226.924 216.408 227.241 217.952 227.807C219.371 228.326 225.367 230.665 228.44 235.086C230.607 238.206 231.385 242.457 230.284 243.226C229.86 243.524 229.313 243.195 228.544 242.709C226.663 240.157 224.921 239.361 223.557 239.175Z" fill="#95AE45"/>
<path d="M220.85 237.524C220.352 238.433 219.692 239.239 218.904 239.899C214.761 243.402 208.792 241.937 205.573 236.625C203.521 233.241 202.67 229.449 203.075 226.518C203.303 224.854 203.935 223.464 204.981 222.58C207.872 220.135 213.839 221.602 218.311 225.853C221.893 229.264 222.776 233.981 220.85 237.524Z" fill="url(#paint18_linear_537_731)"/>
<path d="M215.687 236.02C217.827 234.21 218.147 230.983 216.402 228.812C214.656 226.641 211.506 226.348 209.366 228.158C207.226 229.968 206.906 233.196 208.651 235.367C210.397 237.537 213.547 237.83 215.687 236.02Z" fill="#FF9F1C"/>
<path style="mix-blend-mode:multiply" opacity="0.1" d="M220.85 237.524C220.352 238.433 219.692 239.239 218.904 239.899C214.761 243.402 208.792 241.937 205.573 236.625C203.521 233.241 202.67 229.449 203.075 226.518C203.56 229.48 204.875 233.941 208.472 235.145C209.01 235.321 209.569 235.421 210.134 235.444C212.161 235.533 214.112 235.669 215.82 235.912C218.027 236.227 219.825 236.718 220.85 237.524Z" fill="url(#paint19_radial_537_731)"/>
<path d="M119.886 258.605C148.968 258.605 172.544 251.753 172.544 243.301C172.544 234.85 148.968 227.998 119.886 227.998C90.8041 227.998 67.2285 234.85 67.2285 243.301C67.2285 251.753 90.8041 258.605 119.886 258.605Z" fill="#D8DEE8"/>
<g style="mix-blend-mode:multiply" opacity="0.3">
<path d="M119.886 252.533C143.111 252.533 161.938 248.202 161.938 242.859C161.938 237.515 143.111 233.184 119.886 233.184C96.6617 233.184 77.8345 237.515 77.8345 242.859C77.8345 248.202 96.6617 252.533 119.886 252.533Z" fill="#D8DEE8"/>
</g>
<path d="M119.886 252.534C143.86 252.534 163.294 244.777 163.294 235.207C163.294 225.637 143.86 217.879 119.886 217.879C95.9122 217.879 76.4775 225.637 76.4775 235.207C76.4775 244.777 95.9122 252.534 119.886 252.534Z" fill="#AABBCC"/>
<path d="M119.886 248.487C143.86 248.487 163.294 241.635 163.294 233.184C163.294 224.732 143.86 217.88 119.886 217.88C95.9122 217.88 76.4775 224.732 76.4775 233.184C76.4775 241.635 95.9122 248.487 119.886 248.487Z" fill="url(#paint20_linear_537_731)"/>
<path d="M111.155 202.766C111.155 202.766 149.502 201.342 152.875 201.323C156.248 201.304 150.094 205.205 145.823 207.837C141.552 210.47 126.724 209.955 122.435 206.707C118.147 203.458 113.119 205.531 113.119 205.531C113.119 205.531 111.237 206.794 105.894 206.707C100.552 206.619 105.971 202.957 111.155 202.766Z" fill="url(#paint21_linear_537_731)"/>
<path d="M94.7851 202.766C94.7851 202.766 101.976 203.323 104.16 201.744C106.345 200.166 109.392 199.555 110.814 199.746C112.235 199.937 113.168 201.04 114.143 200.996C115.119 200.952 118.146 201.792 118.859 202.861C119.571 203.93 114.68 209.032 112.013 210.472C109.346 211.912 104.243 210.233 102.826 208.446C101.409 206.66 94.229 206.707 94.229 206.707L94.7851 202.766Z" fill="#FFC444"/>
<path d="M75.1823 121.143C66.6163 117.101 45.6967 137.728 37.6402 161.99C34.9327 170.144 27.2896 193.161 39.0958 207.374C50.0413 220.56 74.568 222.386 96.757 208.239C97.1024 205.933 97.4482 203.628 97.7944 201.323C94.307 200.858 90.8454 200.209 87.4234 199.378C73.8024 196.07 66.9773 194.413 64.6075 189.868C60.0979 181.22 76.538 171.365 79.7463 147.507C79.8666 146.582 82.6566 124.67 75.1823 121.143Z" fill="#95AE45"/>
<path d="M106.08 232.822C106.662 232.417 106.253 230.172 105.11 228.525C103.487 226.189 100.32 224.954 99.5713 224.681C98.7561 224.382 98.0341 224.214 97.412 223.487C96.5144 222.439 96.4911 221.009 96.132 221.026C95.8632 221.039 95.9574 221.832 95.4304 222.145C94.7026 222.578 93.7312 221.534 92.9937 222.02C92.7831 222.171 92.631 222.394 92.5638 222.649C92.3949 223.317 93.0169 223.791 92.8384 224.114C92.6443 224.47 91.8359 223.989 91.1624 224.361C90.4123 224.774 89.9979 226.147 90.4094 227.038C90.9092 228.116 92.4153 228.033 92.5036 228.821C92.5686 229.405 91.7641 229.634 91.701 230.261C91.604 231.21 93.2615 232.535 95.0743 232.976C98.7474 233.871 100.962 230.628 104.099 231.962C105.128 232.399 105.698 233.091 106.08 232.822Z" fill="#748431"/>
<path d="M102.532 230.683C100.894 230.462 100.254 231.906 97.7082 232.166C95.5897 232.384 93.3529 231.661 93.186 230.719C93.0782 230.107 93.9177 229.823 93.8653 229.027C93.7828 227.84 91.87 227.46 91.9486 226.639C92.0195 225.913 93.5557 225.956 93.938 224.847C94.2292 224.008 93.5635 223.349 93.9157 222.956C94.3466 222.475 95.4403 223.344 96.3137 222.906C96.509 222.804 96.6759 222.653 96.7989 222.466C96.9509 222.835 97.1574 223.178 97.4112 223.483C98.0333 224.209 98.7553 224.378 99.5705 224.677C100.32 224.95 103.486 226.185 105.109 228.521C106.253 230.168 106.661 232.413 106.079 232.818C105.855 232.974 105.567 232.802 105.16 232.545C104.172 231.2 103.254 230.781 102.532 230.683Z" fill="#95AE45"/>
<path d="M106.199 234.186C107.093 233.701 109.387 232.295 110.306 229.532C111.806 225.032 108.705 219.768 106.522 219.633C105.785 219.587 105.163 220.131 103.863 219.857C102.967 219.672 102.845 219.331 101.945 219.247C101.129 219.169 99.8956 219.325 99.5967 220.01C99.39 220.486 99.7539 220.937 99.5084 221.172C99.2172 221.451 98.6107 220.887 98.1197 221.063C97.4006 221.321 96.9261 223.163 97.4346 224.536C98.3254 226.941 101.626 226.259 104.064 228.824C105.583 230.426 106.056 232.539 106.199 234.186Z" fill="#95AE45"/>
<path d="M106.662 233.39C106.662 233.39 108.797 229.807 107.766 226.115C106.736 222.424 105.71 222.93 105.231 222.699C104.751 222.469 105.807 224.057 106.319 225.275C106.83 226.493 108.009 227.579 106.662 233.39Z" fill="#748431"/>
<path style="mix-blend-mode:multiply" opacity="0.3" d="M98.1216 221.065C98.6126 220.889 99.2153 221.453 99.5103 221.174C99.7558 220.939 99.3919 220.488 99.5986 220.012C99.8975 219.328 101.131 219.171 101.947 219.249C102.847 219.333 102.969 219.674 103.865 219.859C105.17 220.13 105.787 219.589 106.524 219.635C108.665 219.767 111.691 224.842 110.384 229.284C110.611 227.592 110.551 225.553 109.615 223.644C109.429 223.264 108.075 220.501 106.494 220.602C105.679 220.654 105.455 221.425 104.535 221.425C103.209 221.425 102.671 219.824 101.833 220.049C101.038 220.262 101.22 221.788 100.218 222.171C99.5044 222.444 99.0241 221.819 98.4321 222.003C97.9964 222.139 97.5704 222.692 97.3404 224.227C96.9997 222.902 97.4559 221.304 98.1216 221.065Z" fill="url(#paint22_linear_537_731)"/>
<path d="M131.088 230.392C131.088 230.392 106.792 224.064 100.473 227.997C94.1532 231.931 93.9911 240.586 106.577 240.789C119.162 240.992 134.502 238.627 134.502 238.627V235.207L131.088 230.392Z" fill="#C32F27"/>
<path d="M131.088 226.972C131.088 226.972 106.792 224.064 100.473 227.997C94.1532 231.93 93.9911 237.167 106.577 237.37C119.162 237.573 134.502 235.207 134.502 235.207L131.088 226.972Z" fill="#FF9F1C"/>
<g style="mix-blend-mode:multiply" opacity="0.5">
<g style="mix-blend-mode:multiply" opacity="0.5">
<path d="M109.536 228.115C109.466 228.061 109.386 228.023 109.301 228.001C109.216 227.979 109.128 227.975 109.041 227.988C108.955 228.002 108.871 228.032 108.796 228.078C108.721 228.125 108.656 228.186 108.604 228.258L104.639 233.757C104.549 233.903 104.516 234.078 104.546 234.248C104.577 234.417 104.669 234.569 104.804 234.672C104.939 234.774 105.107 234.821 105.275 234.802C105.442 234.784 105.596 234.701 105.706 234.57L109.671 229.071C109.777 228.926 109.822 228.744 109.797 228.564C109.772 228.385 109.678 228.223 109.536 228.115V228.115Z" fill="#C32F27"/>
</g>
<g style="mix-blend-mode:multiply" opacity="0.5">
<path d="M115.205 227.776C115.063 227.669 114.884 227.623 114.71 227.65C114.535 227.677 114.377 227.774 114.272 227.92L110.308 233.419C110.248 233.491 110.203 233.574 110.176 233.663C110.148 233.753 110.139 233.848 110.149 233.941C110.16 234.035 110.188 234.125 110.234 234.207C110.279 234.288 110.341 234.36 110.415 234.416C110.488 234.472 110.572 234.512 110.662 234.533C110.751 234.554 110.844 234.556 110.934 234.539C111.024 234.522 111.11 234.486 111.186 234.433C111.262 234.38 111.326 234.312 111.375 234.233L115.341 228.734C115.393 228.662 115.431 228.58 115.453 228.493C115.474 228.406 115.479 228.315 115.466 228.226C115.454 228.137 115.424 228.052 115.379 227.975C115.334 227.897 115.275 227.83 115.205 227.776V227.776Z" fill="#C32F27"/>
</g>
<g style="mix-blend-mode:multiply" opacity="0.5">
<path d="M120.874 227.435C120.804 227.381 120.724 227.343 120.639 227.321C120.554 227.299 120.465 227.295 120.379 227.308C120.292 227.322 120.209 227.352 120.134 227.399C120.059 227.445 119.994 227.506 119.942 227.578L115.976 233.077C115.871 233.223 115.827 233.406 115.853 233.585C115.879 233.764 115.974 233.926 116.116 234.033C116.258 234.141 116.436 234.187 116.611 234.16C116.786 234.133 116.944 234.036 117.049 233.89L121.014 228.391C121.119 228.245 121.163 228.063 121.137 227.883C121.111 227.704 121.016 227.543 120.874 227.435Z" fill="#C32F27"/>
</g>
<g style="mix-blend-mode:multiply" opacity="0.5">
<path d="M126.544 227.093C126.402 226.985 126.224 226.94 126.049 226.966C125.874 226.993 125.717 227.09 125.612 227.236L121.646 232.735C121.587 232.806 121.542 232.889 121.516 232.978C121.489 233.068 121.48 233.162 121.49 233.255C121.501 233.349 121.529 233.439 121.575 233.52C121.621 233.601 121.682 233.672 121.755 233.728C121.829 233.784 121.912 233.824 122.001 233.845C122.09 233.866 122.183 233.869 122.272 233.852C122.362 233.835 122.448 233.799 122.524 233.747C122.6 233.695 122.664 233.628 122.714 233.549L126.679 228.049C126.785 227.904 126.83 227.721 126.804 227.542C126.779 227.363 126.685 227.201 126.544 227.093V227.093Z" fill="#C32F27"/>
</g>
</g>
<path d="M248.653 68.8086C248.653 70.1871 246.338 72.0761 244.995 72.0522L141.849 70.2289C140.532 70.206 139.501 69.0346 139.501 67.6671V34.2729C139.501 32.9094 141.386 30.5676 142.704 30.5855L245.014 33.2727C245.662 33.286 246.28 33.5598 246.733 34.0351C247.187 34.5105 247.441 35.1494 247.44 35.8146L248.653 68.8086Z" fill="#BFC8D6"/>
<path d="M154.755 69.2435L169.745 68.9808L156 85.0374C155.66 85.4355 155.162 85.3976 154.656 85.4006C153.139 85.4116 153.297 84.0182 153.331 83.4957L154.755 69.2435Z" fill="#BFC8D6"/>
<path d="M248.202 68.1517C248.202 69.5302 247.393 70.6279 246.049 70.6051L143.079 68.7967C141.762 68.7738 140.835 67.6491 140.835 66.2846V32.993C140.832 32.6714 140.892 32.3526 141.011 32.0551C141.13 31.7576 141.306 31.4874 141.528 31.2604C141.75 31.0333 142.014 30.8539 142.304 30.7328C142.595 30.6116 142.906 30.551 143.219 30.5546L246.049 31.9788C247.393 31.9977 248.202 33.1303 248.202 34.5078V68.1517Z" fill="white"/>
<path d="M155.759 67.8044L170.754 67.5436L157.005 83.6799C156.666 84.078 156.126 84.277 155.66 84.0829C155.195 83.8889 154.901 83.3126 154.93 82.7891L155.759 67.8044Z" fill="white"/>
<path d="M155.164 41.5792L157.312 46.0449C157.351 46.1262 157.409 46.1966 157.48 46.2503C157.551 46.304 157.634 46.3394 157.721 46.3535L162.476 47.1089C162.576 47.1249 162.67 47.169 162.747 47.2363C162.825 47.3037 162.882 47.3917 162.914 47.4906C162.946 47.5894 162.95 47.6954 162.927 47.7966C162.903 47.8979 162.853 47.9905 162.782 48.0643L159.368 51.497C159.304 51.5608 159.257 51.6395 159.231 51.7263C159.204 51.8131 159.199 51.9052 159.215 51.9946L160.057 56.8923C160.075 56.9936 160.064 57.098 160.027 57.1936C159.99 57.2892 159.927 57.3721 159.846 57.4328C159.765 57.4935 159.669 57.5295 159.569 57.5367C159.469 57.5439 159.369 57.522 159.28 57.4736L155.023 55.1248C154.946 55.0816 154.86 55.0586 154.773 55.0578C154.685 55.0569 154.599 55.0782 154.521 55.1198L150.296 57.386C150.205 57.4327 150.104 57.4526 150.003 57.4437C149.902 57.4347 149.806 57.3972 149.724 57.3353C149.643 57.2734 149.58 57.1895 149.542 57.093C149.504 56.9966 149.494 56.8913 149.511 56.7888L150.287 51.912C150.302 51.8222 150.295 51.73 150.267 51.6434C150.24 51.5568 150.192 51.4782 150.129 51.4144L146.681 47.924C146.608 47.8525 146.556 47.7615 146.531 47.6612C146.506 47.561 146.509 47.4556 146.539 47.3569C146.569 47.2582 146.626 47.1702 146.703 47.1028C146.779 47.0354 146.873 46.9913 146.972 46.9755L151.705 46.3037C151.791 46.2915 151.873 46.2579 151.943 46.2058C152.013 46.1538 152.07 46.0849 152.109 46.0051L154.201 41.5762C154.246 41.4842 154.314 41.4068 154.4 41.3528C154.485 41.2988 154.583 41.2704 154.683 41.2707C154.783 41.271 154.881 41.3 154.966 41.3546C155.051 41.4091 155.12 41.4869 155.164 41.5792V41.5792Z" fill="url(#paint23_linear_537_731)"/>
<path d="M155.374 41.5801L157.522 46.0469C157.561 46.1281 157.619 46.1985 157.69 46.2522C157.761 46.3059 157.844 46.3413 157.931 46.3554L162.686 47.1098C162.786 47.126 162.88 47.1703 162.958 47.2377C163.035 47.3052 163.092 47.3933 163.124 47.4922C163.156 47.5911 163.16 47.697 163.137 47.7983C163.113 47.8996 163.063 47.9924 162.992 48.0663L159.578 51.4989C159.515 51.5628 159.468 51.6416 159.441 51.7283C159.415 51.8151 159.409 51.9072 159.425 51.9966L160.267 56.8943C160.285 56.9955 160.275 57.0999 160.237 57.1955C160.2 57.2911 160.137 57.374 160.056 57.4347C159.975 57.4954 159.879 57.5314 159.779 57.5386C159.679 57.5458 159.579 57.524 159.49 57.4755L155.233 55.1267C155.156 55.0836 155.07 55.0606 154.983 55.0597C154.895 55.0588 154.809 55.0801 154.731 55.1217L150.506 57.3879C150.416 57.4348 150.314 57.455 150.213 57.4462C150.112 57.4374 150.015 57.3999 149.934 57.338C149.852 57.276 149.789 57.192 149.751 57.0954C149.713 56.9988 149.703 56.8933 149.72 56.7908L150.496 51.914C150.511 51.8241 150.504 51.7319 150.477 51.6453C150.449 51.5587 150.402 51.4802 150.338 51.4163L146.889 47.9259C146.817 47.8543 146.765 47.7632 146.74 47.663C146.715 47.5627 146.717 47.4573 146.748 47.3585C146.778 47.2598 146.834 47.1717 146.911 47.1042C146.987 47.0367 147.081 46.9925 147.18 46.9765L151.913 46.3057C151.999 46.2935 152.081 46.2599 152.151 46.2079C152.222 46.1558 152.279 46.0869 152.317 46.0071L154.409 41.5781C154.454 41.4859 154.523 41.4082 154.608 41.354C154.693 41.2998 154.792 41.2712 154.892 41.2714C154.993 41.2716 155.091 41.3006 155.176 41.3552C155.261 41.4097 155.33 41.4877 155.374 41.5801V41.5801Z" fill="#FF9F1C"/>
<g opacity="0.15">
<path opacity="0.15" d="M158.31 54.0748C156.672 52.4574 154.839 52.5301 154.087 50.6719C153.244 48.5908 155.002 47.1537 154.683 44.6068C154.585 43.8667 154.339 43.1553 153.961 42.5167L152.312 46.0002C152.273 46.08 152.216 46.1489 152.146 46.201C152.076 46.253 151.994 46.2866 151.908 46.2987L147.178 46.9765C147.078 46.9925 146.985 47.0368 146.908 47.1043C146.832 47.1718 146.775 47.2599 146.745 47.3586C146.715 47.4573 146.712 47.5628 146.737 47.663C146.762 47.7633 146.814 47.8544 146.887 47.926L150.336 51.4164C150.399 51.4802 150.447 51.5588 150.474 51.6454C150.502 51.732 150.509 51.8242 150.494 51.914L149.718 56.7908C149.7 56.8934 149.711 56.9989 149.749 57.0955C149.786 57.1921 149.85 57.2761 149.931 57.338C150.013 57.4 150.109 57.4375 150.21 57.4463C150.312 57.4551 150.413 57.4349 150.504 57.388L154.729 55.1218C154.807 55.0802 154.893 55.0589 154.98 55.0598C155.068 55.0606 155.154 55.0836 155.231 55.1268L159.488 57.4756C159.59 57.5337 159.709 57.5555 159.824 57.5375C159.94 57.5195 160.047 57.4627 160.127 57.3761C159.692 55.7707 158.998 54.7545 158.31 54.0748Z" fill="#F0ECE6"/>
</g>
<path d="M174.89 41.8717L177.048 46.3504C177.087 46.432 177.144 46.5028 177.215 46.5567C177.287 46.6106 177.37 46.646 177.457 46.66L182.227 47.4164C182.327 47.4321 182.421 47.4757 182.498 47.5427C182.576 47.6096 182.634 47.6971 182.666 47.7956C182.698 47.8941 182.704 47.9999 182.681 48.1012C182.658 48.2025 182.609 48.2954 182.538 48.3698L179.111 51.8095C179.048 51.8733 179.001 51.952 178.974 52.0388C178.947 52.1256 178.942 52.2177 178.958 52.3071L179.803 57.2148C179.821 57.3168 179.811 57.4221 179.774 57.5185C179.736 57.6149 179.673 57.6985 179.591 57.7595C179.509 57.8205 179.412 57.8565 179.311 57.8633C179.21 57.8702 179.109 57.8475 179.02 57.798L174.751 55.4432C174.673 55.401 174.587 55.379 174.499 55.379C174.411 55.379 174.325 55.401 174.247 55.4432L170.006 57.7134C169.915 57.76 169.814 57.7799 169.713 57.7709C169.612 57.762 169.515 57.7246 169.433 57.6628C169.352 57.601 169.288 57.5172 169.25 57.4208C169.212 57.3243 169.201 57.2189 169.217 57.1162L169.999 52.2285C170.014 52.1385 170.007 52.0463 169.979 51.9597C169.951 51.8731 169.904 51.7946 169.84 51.7309L166.379 48.2335C166.306 48.1618 166.254 48.0705 166.228 47.9701C166.203 47.8697 166.206 47.764 166.236 47.6651C166.267 47.5661 166.323 47.4778 166.4 47.4101C166.476 47.3425 166.57 47.2981 166.67 47.282L171.42 46.6102C171.506 46.5981 171.588 46.5646 171.659 46.5126C171.73 46.4605 171.787 46.3915 171.826 46.3116L173.926 41.8737C173.971 41.7822 174.039 41.7052 174.125 41.6514C174.21 41.5975 174.308 41.5689 174.407 41.5687C174.507 41.5685 174.605 41.5967 174.691 41.6502C174.776 41.7037 174.845 41.7804 174.89 41.8717V41.8717Z" fill="url(#paint24_linear_537_731)"/>
<path d="M175.102 41.8737L177.259 46.3524C177.298 46.434 177.355 46.5048 177.427 46.5587C177.498 46.6125 177.581 46.648 177.668 46.662L182.438 47.4184C182.539 47.4343 182.633 47.4784 182.711 47.5459C182.788 47.6133 182.846 47.7015 182.878 47.8006C182.909 47.8998 182.914 48.006 182.89 48.1075C182.867 48.209 182.817 48.3019 182.745 48.3758L179.317 51.8154C179.254 51.8794 179.207 51.9581 179.181 52.0449C179.154 52.1316 179.149 52.2237 179.165 52.3131L180.009 57.2207C180.028 57.3228 180.018 57.4281 179.98 57.5245C179.943 57.6209 179.879 57.7044 179.797 57.7655C179.716 57.8265 179.619 57.8625 179.518 57.8693C179.417 57.8761 179.316 57.8535 179.227 57.804L174.952 55.4492C174.875 55.407 174.788 55.3849 174.7 55.3849C174.613 55.3849 174.526 55.407 174.449 55.4492L170.207 57.7194C170.116 57.7661 170.015 57.7861 169.913 57.7772C169.812 57.7683 169.716 57.7308 169.634 57.669C169.552 57.6071 169.489 57.5233 169.451 57.4268C169.413 57.3302 169.402 57.2248 169.419 57.1222L170.195 52.2345C170.21 52.1446 170.203 52.0524 170.175 51.9658C170.148 51.8792 170.1 51.8006 170.037 51.7368L166.576 48.2395C166.502 48.1677 166.45 48.0765 166.425 47.9761C166.4 47.8756 166.403 47.77 166.433 47.671C166.463 47.5721 166.52 47.4838 166.597 47.4161C166.673 47.3484 166.767 47.3041 166.867 47.288L171.622 46.6152C171.708 46.6032 171.79 46.5697 171.861 46.5176C171.931 46.4656 171.989 46.3966 172.027 46.3166L174.127 41.8787C174.171 41.7844 174.24 41.7046 174.326 41.6486C174.412 41.5926 174.511 41.5626 174.613 41.562C174.715 41.5615 174.815 41.5905 174.901 41.6457C174.988 41.7008 175.057 41.7799 175.102 41.8737V41.8737Z" fill="#FF9F1C"/>
<g opacity="0.15">
<path opacity="0.15" d="M178.048 54.3922C176.404 52.7719 174.564 52.8446 173.809 50.9824C172.964 48.8973 174.727 47.4582 174.408 44.9053C174.309 44.1632 174.063 43.45 173.683 42.8103L172.033 46.3037C171.995 46.3836 171.937 46.4527 171.867 46.5047C171.796 46.5568 171.714 46.5903 171.628 46.6023L166.872 47.2751C166.773 47.2911 166.679 47.3355 166.602 47.4032C166.526 47.4709 166.469 47.5592 166.439 47.6581C166.409 47.7571 166.406 47.8627 166.431 47.9631C166.456 48.0636 166.508 48.1548 166.581 48.2265L170.043 51.7239C170.106 51.7877 170.154 51.8663 170.181 51.9529C170.209 52.0395 170.216 52.1316 170.201 52.2215L169.425 57.1093C169.408 57.2119 169.419 57.3173 169.457 57.4138C169.495 57.5103 169.558 57.5942 169.64 57.656C169.722 57.7179 169.818 57.7553 169.919 57.7642C170.02 57.7731 170.122 57.7531 170.213 57.7064L174.449 55.4362C174.526 55.3941 174.613 55.372 174.7 55.372C174.788 55.372 174.875 55.3941 174.952 55.4362L179.227 57.791C179.33 57.8492 179.448 57.8709 179.564 57.8529C179.68 57.8349 179.787 57.7782 179.868 57.6915C179.433 56.0921 178.739 55.073 178.048 54.3922Z" fill="#F0ECE6"/>
</g>
<path d="M194.693 42.1664L196.858 46.65C196.898 46.7316 196.955 46.8023 197.027 46.8562C197.099 46.91 197.182 46.9455 197.27 46.9596L202.058 47.7179C202.158 47.7338 202.253 47.7779 202.331 47.8455C202.409 47.9131 202.467 48.0015 202.499 48.1008C202.53 48.2002 202.535 48.3066 202.511 48.4084C202.488 48.5102 202.437 48.6033 202.365 48.6774L198.925 52.123C198.862 52.1868 198.815 52.2655 198.788 52.3523C198.761 52.439 198.756 52.5311 198.772 52.6206L199.62 57.5382C199.638 57.6406 199.628 57.7462 199.59 57.8428C199.552 57.9394 199.488 58.023 199.406 58.084C199.324 58.145 199.227 58.1809 199.125 58.1875C199.024 58.1941 198.923 58.1712 198.834 58.1215L194.544 55.7627C194.466 55.7205 194.379 55.6984 194.291 55.6984C194.203 55.6984 194.116 55.7205 194.038 55.7627L189.78 58.0369C189.689 58.0836 189.587 58.1036 189.486 58.0948C189.385 58.0859 189.288 58.0485 189.206 57.9867C189.124 57.9249 189.06 57.8411 189.022 57.7446C188.984 57.6481 188.972 57.5425 188.989 57.4397L189.773 52.543C189.787 52.453 189.78 52.3609 189.752 52.2743C189.725 52.1877 189.677 52.1092 189.614 52.0454L186.139 48.542C186.065 48.4702 186.013 48.3789 185.988 48.2782C185.963 48.1776 185.965 48.0717 185.996 47.9726C186.026 47.8734 186.083 47.7849 186.159 47.7171C186.236 47.6492 186.33 47.6047 186.43 47.5886L191.198 46.9148C191.285 46.9029 191.367 46.8695 191.438 46.8174C191.51 46.7654 191.567 46.6963 191.606 46.6162L193.714 42.1703C193.758 42.0753 193.827 41.995 193.913 41.9386C194 41.8822 194.1 41.852 194.202 41.8516C194.305 41.8512 194.405 41.8805 194.492 41.9362C194.579 41.9919 194.649 42.0717 194.693 42.1664Z" fill="url(#paint25_linear_537_731)"/>
<path d="M194.906 42.1683L197.071 46.647C197.11 46.7288 197.168 46.7997 197.24 46.8537C197.311 46.9078 197.394 46.9434 197.482 46.9575L202.27 47.7159C202.371 47.7318 202.466 47.7759 202.543 47.8435C202.621 47.9111 202.679 47.9995 202.711 48.0988C202.743 48.1982 202.748 48.3046 202.724 48.4064C202.7 48.5082 202.65 48.6013 202.578 48.6754L199.138 52.121C199.074 52.1846 199.027 52.2633 199 52.3501C198.974 52.4369 198.968 52.5291 198.984 52.6186L199.832 57.5362C199.85 57.6385 199.84 57.7442 199.802 57.8408C199.765 57.9375 199.701 58.0212 199.619 58.0822C199.537 58.1433 199.439 58.1792 199.338 58.1858C199.237 58.1924 199.136 58.1694 199.047 58.1194L194.755 55.7607C194.677 55.7185 194.591 55.6964 194.502 55.6964C194.414 55.6964 194.328 55.7185 194.25 55.7607L189.992 58.0348C189.901 58.0818 189.8 58.1021 189.698 58.0933C189.597 58.0846 189.5 58.0473 189.418 57.9854C189.336 57.9236 189.272 57.8397 189.234 57.743C189.195 57.6463 189.184 57.5406 189.2 57.4377L189.986 52.541C190 52.451 189.992 52.3589 189.965 52.2724C189.937 52.1858 189.89 52.1073 189.826 52.0433L186.351 48.539C186.278 48.4673 186.226 48.376 186.2 48.2755C186.175 48.1749 186.178 48.069 186.208 47.9699C186.238 47.8708 186.295 47.7823 186.372 47.7146C186.449 47.6468 186.542 47.6025 186.642 47.5866L191.411 46.9128C191.498 46.901 191.58 46.8676 191.651 46.8155C191.722 46.7635 191.779 46.6943 191.818 46.6142L193.926 42.1683C193.971 42.0735 194.04 41.9934 194.127 41.9374C194.213 41.8813 194.314 41.8516 194.416 41.8516C194.519 41.8516 194.619 41.8813 194.706 41.9374C194.792 41.9934 194.862 42.0735 194.906 42.1683Z" fill="#FF9F1C"/>
<g opacity="0.15">
<path opacity="0.15" d="M197.863 54.7107C196.214 53.0874 194.365 53.1591 193.608 51.295C192.759 49.2049 194.529 47.7628 194.209 45.2059C194.11 44.4624 193.863 43.7478 193.482 43.1069L191.822 46.6063C191.783 46.6864 191.726 46.7556 191.655 46.8076C191.584 46.8597 191.501 46.8931 191.415 46.9049L186.646 47.5787C186.546 47.5946 186.452 47.6389 186.376 47.7067C186.299 47.7744 186.242 47.8629 186.212 47.962C186.182 48.0611 186.179 48.167 186.204 48.2676C186.23 48.3681 186.282 48.4594 186.355 48.5311L189.83 52.0354C189.894 52.0994 189.941 52.1779 189.969 52.2645C189.996 52.351 190.003 52.4431 189.989 52.5331L189.204 57.4298C189.188 57.5327 189.199 57.6384 189.238 57.7351C189.276 57.8318 189.34 57.9157 189.422 57.9775C189.504 58.0394 189.601 58.0767 189.702 58.0854C189.804 58.0942 189.905 58.0739 189.996 58.0269L194.253 55.7527C194.332 55.7106 194.418 55.6885 194.507 55.6885C194.595 55.6885 194.682 55.7106 194.76 55.7527L199.05 58.1115C199.153 58.17 199.272 58.1919 199.388 58.1739C199.505 58.1559 199.612 58.099 199.694 58.012C199.256 56.4136 198.556 55.3925 197.863 54.7107Z" fill="#F0ECE6"/>
</g>
<path d="M214.571 42.462L216.745 46.9536C216.784 47.0356 216.843 47.1067 216.915 47.1609C216.987 47.2151 217.07 47.2508 217.158 47.2651L221.965 48.0245C222.066 48.0403 222.161 48.0845 222.239 48.1522C222.317 48.2198 222.375 48.3084 222.407 48.408C222.439 48.5076 222.443 48.6143 222.42 48.7164C222.396 48.8184 222.346 48.9117 222.273 48.986L218.82 52.4385C218.756 52.5022 218.709 52.581 218.682 52.6677C218.656 52.7545 218.65 52.8467 218.666 52.9362L219.517 57.8627C219.536 57.9655 219.525 58.0715 219.487 58.1685C219.45 58.2655 219.386 58.3495 219.303 58.4106C219.22 58.4718 219.122 58.5077 219.021 58.5141C218.919 58.5206 218.818 58.4973 218.728 58.4469L214.422 56.0842C214.343 56.0418 214.256 56.0197 214.168 56.0197C214.079 56.0197 213.992 56.0418 213.914 56.0842L209.639 58.3633C209.548 58.4101 209.447 58.4302 209.345 58.4214C209.244 58.4126 209.147 58.3753 209.065 58.3135C208.982 58.2518 208.919 58.168 208.88 58.0715C208.841 57.9749 208.829 57.8693 208.846 57.7662L209.633 52.8595C209.647 52.7696 209.64 52.6774 209.612 52.5908C209.585 52.5042 209.537 52.4257 209.473 52.3619L205.985 48.8516C205.911 48.7798 205.859 48.6884 205.833 48.5876C205.808 48.4869 205.81 48.3808 205.841 48.2815C205.871 48.1821 205.928 48.0935 206.005 48.0255C206.082 47.9576 206.176 47.9131 206.276 47.8971L211.063 47.2214C211.15 47.2092 211.233 47.1752 211.304 47.1222C211.376 47.0692 211.433 46.999 211.472 46.9178L213.592 42.454C213.637 42.3602 213.707 42.2814 213.794 42.2265C213.882 42.1717 213.982 42.143 214.084 42.1438C214.186 42.1447 214.286 42.175 214.372 42.2312C214.458 42.2875 214.527 42.3674 214.571 42.462V42.462Z" fill="url(#paint26_linear_537_731)"/>
<path d="M214.785 42.464L216.959 46.9556C216.998 47.0376 217.056 47.1086 217.128 47.1626C217.2 47.2167 217.284 47.2522 217.372 47.2661L222.179 48.0265C222.28 48.0421 222.374 48.0861 222.453 48.1537C222.531 48.2213 222.589 48.3098 222.621 48.4093C222.653 48.5089 222.657 48.6156 222.634 48.7176C222.61 48.8196 222.559 48.9128 222.487 48.987L219.033 52.4405C218.97 52.5041 218.923 52.5828 218.896 52.6696C218.869 52.7564 218.863 52.8486 218.879 52.9382L219.73 57.8647C219.749 57.9674 219.739 58.0735 219.701 58.1706C219.663 58.2676 219.599 58.3517 219.517 58.4129C219.434 58.4741 219.336 58.51 219.234 58.5164C219.133 58.5228 219.031 58.4994 218.942 58.4489L214.634 56.0862C214.556 56.0438 214.469 56.0217 214.381 56.0217C214.292 56.0217 214.205 56.0438 214.127 56.0862L209.857 58.3653C209.766 58.4123 209.664 58.4326 209.562 58.424C209.461 58.4153 209.364 58.378 209.281 58.3162C209.199 58.2545 209.135 58.1706 209.096 58.0739C209.058 57.9772 209.046 57.8714 209.062 57.7682L209.85 52.8615C209.864 52.7715 209.857 52.6793 209.829 52.5928C209.801 52.5062 209.753 52.4277 209.69 52.3639L206.201 48.8526C206.128 48.781 206.075 48.6896 206.05 48.5889C206.024 48.4881 206.027 48.3821 206.057 48.2828C206.087 48.1835 206.144 48.0949 206.221 48.0271C206.298 47.9592 206.392 47.9149 206.492 47.8991L211.28 47.2234C211.367 47.2112 211.45 47.1772 211.521 47.1242C211.593 47.0713 211.65 47.001 211.689 46.9198L213.806 42.466C213.85 42.3717 213.92 42.2922 214.006 42.2364C214.092 42.1807 214.192 42.1511 214.295 42.1508C214.397 42.1506 214.497 42.1799 214.584 42.2353C214.67 42.2906 214.74 42.3699 214.785 42.464V42.464Z" fill="#FF9F1C"/>
<g opacity="0.15">
<path opacity="0.15" d="M217.754 55.0312C216.097 53.4039 214.243 53.4766 213.484 51.6075C212.632 49.5174 214.409 48.0693 214.088 45.5075C213.989 44.7619 213.74 44.0455 213.357 43.4035L211.692 46.9098C211.653 46.9911 211.596 47.0613 211.524 47.1142C211.453 47.1672 211.37 47.2012 211.282 47.2134L206.495 47.8892C206.395 47.9049 206.301 47.9493 206.224 48.0171C206.147 48.0849 206.09 48.1735 206.06 48.2728C206.03 48.3721 206.027 48.4782 206.053 48.5789C206.078 48.6796 206.131 48.771 206.204 48.8426L209.686 52.3509C209.75 52.4148 209.797 52.4932 209.825 52.5798C209.853 52.6664 209.86 52.7585 209.846 52.8486L209.058 57.7552C209.042 57.8584 209.054 57.9642 209.093 58.0609C209.131 58.1576 209.195 58.2415 209.277 58.3033C209.36 58.3651 209.457 58.4023 209.558 58.411C209.66 58.4197 209.762 58.3994 209.853 58.3524L214.123 56.0732C214.201 56.0309 214.288 56.0087 214.377 56.0087C214.465 56.0087 214.552 56.0309 214.63 56.0732L218.938 58.436C219.042 58.4943 219.161 58.5162 219.278 58.4982C219.394 58.4803 219.502 58.4234 219.584 58.3364C219.152 56.7371 218.45 55.7139 217.754 55.0312Z" fill="#F0ECE6"/>
</g>
<path d="M234.419 42.462L236.593 46.9536C236.632 47.0357 236.69 47.1069 236.762 47.1611C236.834 47.2153 236.918 47.251 237.006 47.2652L241.812 48.0245C241.914 48.0403 242.008 48.0845 242.086 48.1522C242.165 48.2199 242.223 48.3084 242.255 48.408C242.287 48.5076 242.291 48.6144 242.268 48.7164C242.244 48.8184 242.193 48.9117 242.121 48.986L238.667 52.4385C238.604 52.5021 238.556 52.5808 238.53 52.6676C238.503 52.7544 238.498 52.8467 238.514 52.9362L239.364 57.8627C239.383 57.9655 239.373 58.0715 239.335 58.1686C239.297 58.2657 239.233 58.3497 239.151 58.4109C239.068 58.4722 238.97 58.508 238.868 58.5144C238.767 58.5208 238.665 58.4974 238.576 58.447L234.269 56.0842C234.191 56.0418 234.104 56.0197 234.015 56.0197C233.926 56.0197 233.839 56.0418 233.761 56.0842L229.491 58.3633C229.4 58.41 229.298 58.43 229.197 58.4211C229.095 58.4123 228.998 58.375 228.916 58.3133C228.834 58.2516 228.77 58.1679 228.731 58.0714C228.692 57.9749 228.68 57.8693 228.696 57.7662L229.484 52.8595C229.498 52.7696 229.491 52.6775 229.463 52.5909C229.436 52.5044 229.388 52.4258 229.325 52.3619L225.836 48.8516C225.763 48.7799 225.71 48.6884 225.685 48.5876C225.659 48.4869 225.662 48.3808 225.692 48.2815C225.723 48.1821 225.779 48.0935 225.856 48.0256C225.933 47.9576 226.027 47.9132 226.127 47.8972L230.915 47.2214C231.002 47.2092 231.085 47.1752 231.156 47.1222C231.227 47.0693 231.285 46.999 231.323 46.9178L233.44 42.464C233.484 42.3697 233.554 42.2902 233.64 42.2345C233.726 42.1787 233.826 42.1491 233.929 42.1489C234.031 42.1487 234.131 42.1779 234.217 42.2333C234.304 42.2887 234.374 42.3679 234.419 42.462V42.462Z" fill="url(#paint27_linear_537_731)"/>
<path d="M234.632 42.464L236.806 46.9556C236.845 47.0376 236.904 47.1086 236.975 47.1626C237.047 47.2166 237.131 47.2521 237.219 47.2661L242.025 48.0265C242.126 48.0419 242.221 48.0858 242.299 48.1533C242.377 48.2208 242.436 48.3093 242.468 48.4089C242.5 48.5085 242.505 48.6153 242.481 48.7173C242.457 48.8194 242.407 48.9127 242.334 48.9869L238.881 52.4405C238.817 52.5041 238.77 52.5828 238.743 52.6695C238.716 52.7563 238.71 52.8486 238.726 52.9381L239.577 57.8647C239.596 57.9675 239.585 58.0735 239.547 58.1705C239.51 58.2675 239.446 58.3514 239.363 58.4126C239.28 58.4738 239.182 58.5097 239.081 58.5161C238.979 58.5225 238.878 58.4992 238.788 58.4489L234.482 56.0861C234.403 56.0438 234.316 56.0216 234.228 56.0216C234.139 56.0216 234.052 56.0438 233.974 56.0861L229.704 58.3653C229.613 58.4123 229.511 58.4326 229.41 58.4239C229.308 58.4153 229.211 58.378 229.128 58.3162C229.046 58.2544 228.982 58.1706 228.944 58.0738C228.905 57.9771 228.893 57.8713 228.909 57.7681L229.697 52.8615C229.711 52.7715 229.704 52.6793 229.676 52.5927C229.648 52.5062 229.601 52.4277 229.537 52.3639L226.048 48.8526C225.975 48.7809 225.922 48.6896 225.897 48.5888C225.871 48.4881 225.874 48.3821 225.904 48.2828C225.935 48.1834 225.991 48.0948 226.068 48.027C226.145 47.9592 226.239 47.9149 226.34 47.8991L231.127 47.2233C231.214 47.2113 231.297 47.1772 231.368 47.1243C231.44 47.0713 231.497 47.001 231.535 46.9198L233.652 42.4659C233.696 42.3717 233.766 42.2922 233.853 42.2366C233.939 42.1809 234.039 42.1513 234.141 42.1511C234.243 42.1509 234.344 42.1801 234.43 42.2354C234.517 42.2907 234.587 42.3699 234.632 42.464V42.464Z" fill="#FF9F1C"/>
<g opacity="0.15">
<path opacity="0.15" d="M237.602 55.0312C235.944 53.4039 234.09 53.4766 233.332 51.6075C232.48 49.5174 234.256 48.0693 233.934 45.5075C233.836 44.7618 233.587 44.0453 233.204 43.4035L231.538 46.9098C231.5 46.9911 231.443 47.0614 231.371 47.1143C231.3 47.1673 231.217 47.2013 231.13 47.2134L226.342 47.8892C226.242 47.9049 226.148 47.9493 226.071 48.0171C225.994 48.0849 225.937 48.1735 225.907 48.2728C225.877 48.3721 225.874 48.4782 225.9 48.5789C225.925 48.6796 225.978 48.771 226.051 48.8426L229.533 52.3509C229.597 52.4147 229.644 52.4932 229.672 52.5798C229.7 52.6664 229.707 52.7585 229.693 52.8486L228.905 57.7552C228.889 57.8584 228.901 57.9642 228.94 58.0609C228.978 58.1576 229.042 58.2415 229.125 58.3033C229.207 58.365 229.304 58.4023 229.406 58.411C229.507 58.4197 229.609 58.3994 229.7 58.3524L233.97 56.0732C234.048 56.0309 234.135 56.0087 234.224 56.0087C234.312 56.0087 234.399 56.0309 234.478 56.0732L238.785 58.436C238.888 58.4944 239.008 58.5163 239.125 58.4983C239.241 58.4804 239.349 58.4235 239.432 58.3364C238.999 56.737 238.297 55.7139 237.602 55.0312Z" fill="#F0ECE6"/>
</g>
<path d="M185.146 103.607C185.059 103.607 184.974 103.582 184.901 103.536C184.827 103.489 184.767 103.423 184.728 103.343L184.701 103.29C183.451 100.801 184.17 98.5988 184.992 97.1876C186.635 94.3739 185.263 91.3842 183.294 89.7977C180.839 87.8191 183.064 82.9304 183.161 82.7204C183.187 82.6634 183.224 82.6122 183.27 82.5698C183.315 82.5275 183.369 82.4948 183.427 82.4736C183.485 82.4523 183.546 82.4431 183.608 82.4462C183.669 82.4494 183.729 82.4649 183.785 82.492C183.841 82.519 183.891 82.5571 183.932 82.6039C183.973 82.6507 184.005 82.7054 184.026 82.7649C184.046 82.8244 184.055 82.8874 184.052 82.9505C184.049 83.0136 184.034 83.0754 184.008 83.1324C183.445 84.3526 182.323 87.7923 183.874 89.0413C186.229 90.9383 187.645 94.5153 185.796 97.6822C184.776 99.4289 184.687 101.166 185.532 102.849L185.562 102.908C185.598 102.982 185.615 103.063 185.612 103.145C185.608 103.227 185.585 103.307 185.543 103.376C185.501 103.446 185.442 103.504 185.372 103.544C185.303 103.584 185.224 103.605 185.144 103.605L185.146 103.607Z" fill="#C32F27"/>
<path d="M189.525 100.083C189.439 100.083 189.353 100.058 189.279 100.012C189.205 99.9654 189.145 99.8986 189.106 99.8191L189.08 99.7664C187.829 97.2782 188.548 95.0747 189.371 93.6644C191.014 90.8498 189.644 87.86 187.674 86.2736C185.22 84.295 187.444 79.4062 187.54 79.1962C187.593 79.081 187.689 78.9922 187.806 78.9494C187.923 78.9066 188.052 78.9132 188.164 78.9678C188.277 79.0225 188.363 79.1206 188.405 79.2407C188.447 79.3609 188.44 79.4931 188.387 79.6083C187.824 80.8285 186.703 84.2681 188.253 85.5172C190.609 87.4151 192.025 90.9911 190.177 94.1581C189.156 95.9057 189.067 97.6415 189.912 99.3255L189.942 99.3852C189.97 99.4414 189.987 99.5028 189.991 99.5657C189.996 99.6287 189.989 99.6919 189.97 99.752C189.951 99.812 189.92 99.8675 189.88 99.9154C189.84 99.9633 189.791 100.003 189.736 100.031C189.671 100.065 189.599 100.083 189.525 100.083V100.083Z" fill="#C32F27"/>
<path d="M194.837 99.1214C194.751 99.1214 194.666 99.0967 194.592 99.0502C194.518 99.0036 194.458 98.937 194.419 98.8577L194.392 98.8039C193.142 96.3157 193.861 94.1122 194.683 92.7019C196.326 89.8883 194.955 86.8986 192.986 85.3111C190.531 83.3335 192.756 78.4438 192.852 78.2338C192.905 78.1186 193.001 78.0298 193.118 77.9871C193.236 77.9443 193.365 77.9511 193.477 78.0059C193.589 78.0607 193.676 78.1589 193.717 78.2792C193.759 78.3994 193.753 78.5316 193.699 78.6468C193.136 79.866 192.014 83.3057 193.565 84.5547C195.92 86.4527 197.336 90.0287 195.488 93.1966C194.468 94.9433 194.378 96.68 195.224 98.363L195.254 98.4227C195.29 98.496 195.307 98.5774 195.303 98.6593C195.3 98.7413 195.276 98.8209 195.234 98.8907C195.192 98.9606 195.134 99.0182 195.064 99.0582C194.994 99.0983 194.915 99.1193 194.836 99.1194L194.837 99.1214Z" fill="#C32F27"/>
<defs>
<radialGradient id="paint0_radial_537_731" cx="0" cy="0" r="1" gradientUnits="userSpaceOnUse" gradientTransform="translate(17814.7 5811.43) scale(1899.45 2615.82)">
<stop stop-color="#FFC444"/>
<stop offset="1" stop-color="#F36F56"/>
</radialGradient>
<radialGradient id="paint1_radial_537_731" cx="0" cy="0" r="1" gradientUnits="userSpaceOnUse" gradientTransform="translate(-242269 47933.5) scale(977635 64864.6)">
<stop stop-color="#FFC444"/>
<stop offset="1" stop-color="#F36F56"/>
</radialGradient>
<linearGradient id="paint2_linear_537_731" x1="177.173" y1="242.602" x2="252.498" y2="242.602" gradientUnits="userSpaceOnUse">
<stop stop-color="#EBEFF2"/>
<stop offset="1" stop-color="white"/>
</linearGradient>
<linearGradient id="paint3_linear_537_731" x1="165010" y1="31940.2" x2="165145" y2="38078.2" gradientUnits="userSpaceOnUse">
<stop stop-color="#EBEFF2"/>
<stop offset="1" stop-color="white"/>
</linearGradient>
<linearGradient id="paint4_linear_537_731" x1="162489" y1="29557.4" x2="162596" y2="34789.4" gradientUnits="userSpaceOnUse">
<stop stop-color="white"/>
<stop offset="1" stop-color="#EBEFF2"/>
</linearGradient>
<linearGradient id="paint5_linear_537_731" x1="221.579" y1="230.588" x2="224.509" y2="218.958" gradientUnits="userSpaceOnUse">
<stop stop-color="#E38DDD"/>
<stop offset="1" stop-color="#9571F6"/>
</linearGradient>
<linearGradient id="paint6_linear_537_731" x1="-11926.1" y1="20591.4" x2="-13324" y2="23567.1" gradientUnits="userSpaceOnUse">
<stop stop-color="#E38DDD"/>
<stop offset="1" stop-color="#9571F6"/>
</linearGradient>
<linearGradient id="paint7_linear_537_731" x1="-45831.7" y1="52166.9" x2="-46712.9" y2="51390" gradientUnits="userSpaceOnUse">
<stop stop-color="#E38DDD"/>
<stop offset="1" stop-color="#9571F6"/>
</linearGradient>
<linearGradient id="paint8_linear_537_731" x1="-146631" y1="11740.3" x2="-146215" y2="15002.5" gradientUnits="userSpaceOnUse">
<stop stop-color="#E38DDD"/>
<stop offset="1" stop-color="#9571F6"/>
</linearGradient>
<linearGradient id="paint9_linear_537_731" x1="241.274" y1="218.331" x2="221.765" y2="229.52" gradientUnits="userSpaceOnUse">
<stop stop-color="#FF9085"/>
<stop offset="1" stop-color="#C32F27"/>
</linearGradient>
<linearGradient id="paint10_linear_537_731" x1="6590.01" y1="-26483" x2="3809.16" y2="-24825.7" gradientUnits="userSpaceOnUse">
<stop stop-color="#EBEFF2"/>
<stop offset="1" stop-color="white"/>
</linearGradient>
<linearGradient id="paint11_linear_537_731" x1="10941.1" y1="-4390.13" x2="10501.8" y2="-4563.08" gradientUnits="userSpaceOnUse">
<stop stop-color="#FF9085"/>
<stop offset="1" stop-color="#C32F27"/>
</linearGradient>
<linearGradient id="paint12_linear_537_731" x1="8992.15" y1="-5534.27" x2="8675.1" y2="-5620.09" gradientUnits="userSpaceOnUse">
<stop stop-color="#FF9085"/>
<stop offset="1" stop-color="#C32F27"/>
</linearGradient>
<linearGradient id="paint13_linear_537_731" x1="7754.18" y1="-4334.22" x2="7455.13" y2="-4426.52" gradientUnits="userSpaceOnUse">
<stop stop-color="#FF9085"/>
<stop offset="1" stop-color="#C32F27"/>
</linearGradient>
<linearGradient id="paint14_linear_537_731" x1="8826.91" y1="-4295.66" x2="8490.9" y2="-4404.84" gradientUnits="userSpaceOnUse">
<stop stop-color="#FF9085"/>
<stop offset="1" stop-color="#C32F27"/>
</linearGradient>
<linearGradient id="paint15_linear_537_731" x1="43381.2" y1="104141" x2="40689.7" y2="100371" gradientUnits="userSpaceOnUse">
<stop stop-color="#FF9085"/>
<stop offset="1" stop-color="#C32F27"/>
</linearGradient>
<linearGradient id="paint16_linear_537_731" x1="37899.8" y1="90960.5" x2="35833.4" y2="88064.8" gradientUnits="userSpaceOnUse">
<stop stop-color="#EBEFF2"/>
<stop offset="1" stop-color="white"/>
</linearGradient>
<linearGradient id="paint17_linear_537_731" x1="8037.17" y1="31666.2" x2="7822.23" y2="31419.9" gradientUnits="userSpaceOnUse">
<stop stop-color="#FF9085"/>
<stop offset="1" stop-color="#C32F27"/>
</linearGradient>
<linearGradient id="paint18_linear_537_731" x1="12800.8" y1="-17880.4" x2="8843.7" y2="-18570.3" gradientUnits="userSpaceOnUse">
<stop stop-color="#EBEFF2"/>
<stop offset="1" stop-color="white"/>
</linearGradient>
<radialGradient id="paint19_radial_537_731" cx="0" cy="0" r="1" gradientUnits="userSpaceOnUse" gradientTransform="translate(10905.4 -15857.4) rotate(-40.4456) scale(1522.7 1275.21)">
<stop stop-color="#FFC444"/>
<stop offset="1" stop-color="#F36F56"/>
</radialGradient>
<linearGradient id="paint20_linear_537_731" x1="68495.1" y1="71926.5" x2="146163" y2="71926.5" gradientUnits="userSpaceOnUse">
<stop stop-color="#EBEFF2"/>
<stop offset="1" stop-color="white"/>
</linearGradient>
<linearGradient id="paint21_linear_537_731" x1="153.847" y1="205.423" x2="103.697" y2="205.423" gradientUnits="userSpaceOnUse">
<stop stop-color="#AA80F9"/>
<stop offset="1" stop-color="#6165D7"/>
</linearGradient>
<linearGradient id="paint22_linear_537_731" x1="-90339.2" y1="5998.34" x2="-90223.3" y2="6907.94" gradientUnits="userSpaceOnUse">
<stop stop-color="#E38DDD"/>
<stop offset="1" stop-color="#9571F6"/>
</linearGradient>
<linearGradient id="paint23_linear_537_731" x1="146.523" y1="49.4661" x2="162.951" y2="49.3626" gradientUnits="userSpaceOnUse">
<stop stop-color="#311944"/>
<stop offset="1" stop-color="#893976"/>
</linearGradient>
<linearGradient id="paint24_linear_537_731" x1="11793.8" y1="8786.74" x2="14595" y2="8786.74" gradientUnits="userSpaceOnUse">
<stop stop-color="#311944"/>
<stop offset="1" stop-color="#893976"/>
</linearGradient>
<linearGradient id="paint25_linear_537_731" x1="15236.6" y1="8881.33" x2="18060.8" y2="8881.33" gradientUnits="userSpaceOnUse">
<stop stop-color="#311944"/>
<stop offset="1" stop-color="#893976"/>
</linearGradient>
<linearGradient id="paint26_linear_537_731" x1="18712.1" y1="8972.71" x2="21558.1" y2="8972.71" gradientUnits="userSpaceOnUse">
<stop stop-color="#311944"/>
<stop offset="1" stop-color="#893976"/>
</linearGradient>
<linearGradient id="paint27_linear_537_731" x1="22125.6" y1="8991.56" x2="24970.9" y2="8991.56" gradientUnits="userSpaceOnUse">
<stop stop-color="#311944"/>
<stop offset="1" stop-color="#893976"/>
</linearGradient>
</defs>
</svg>
