<svg width="360" height="640" viewBox="0 0 360 640" fill="none" xmlns="http://www.w3.org/2000/svg">
<rect width="360" height="640" fill="black"/>
<path d="M163.181 228.721C162.98 228.654 162.846 228.654 162.712 228.587C161.642 228.587 160.572 228.654 159.435 228.721M158.632 228.721C150.005 228.521 142.714 225.987 136.695 221.121C130.341 216.054 127.197 209.921 127.197 202.721V129.124C137.096 129.057 145.59 133.457 152.68 142.39C159.234 150.656 162.712 160.589 163.114 172.056C163.114 172.789 163.114 191.655 163.181 228.721C163.783 239.387 168.933 247.187 178.631 252.187C184.249 255.053 190.268 256.453 196.555 256.32C206.187 255.987 215.885 255.787 225.717 255.653C227.723 255.653 229.73 255.653 231.803 255.653C231.201 245.054 227.188 237.587 219.697 233.187C214.012 229.787 206.254 228.254 196.422 228.587L163.916 228.721H158.632Z" stroke="#95AE45" stroke-width="7.74857" stroke-miterlimit="3" stroke-linecap="round"/>
<path d="M141.938 287.374C141.065 294.156 133.778 294.156 131.965 294.156H130.756V274.514C130.756 272.096 132.099 271.525 133.543 271.525V271.022H124.242V271.525C125.686 271.525 126.626 272.398 126.626 274.447V290.496C126.626 292.78 125.955 294.156 124.511 294.156V294.66H142.408V287.374H141.938ZM150.253 287.273L154.114 276.797L158.278 287.273H150.253ZM167.411 294.156C166.504 294.089 165.732 294.257 164.624 291.571C164.624 291.571 162.374 285.829 156.196 271.022H155.759L150.018 286.333C146.929 294.156 146.089 294.123 145.015 294.156V294.66H152.905V294.156C147.902 294.358 149.682 289.12 150.152 287.777H158.479L159.554 290.463C159.957 291.403 160.998 294.156 158.781 294.156V294.66H167.411V294.156ZM180.789 271.022V271.525C185.96 271.525 183.442 277.871 182.938 279.416L179.077 289.355L173.537 274.95C173.503 274.849 172.496 271.525 175.283 271.525V271.022H165.411V271.525C166.418 271.525 167.56 271.559 168.601 274.111C168.601 274.111 170.783 279.819 176.962 294.66H177.499L183.408 279.55C186.632 271.525 187.807 271.525 189.687 271.525V271.022H180.789ZM201.531 294.962C205.091 294.962 209.791 293.283 209.758 286.669V277.133C209.758 275.521 209.691 271.492 214.425 271.525V271.022H204.99V271.525C209.254 271.492 209.254 275.521 209.254 277.133V286.669C209.254 290.933 206.467 293.216 203.479 293.216C200.054 293.216 197.569 290.832 197.569 286.769V274.48C197.569 271.962 199.047 271.525 200.491 271.525V271.022H190.955V271.525C192.432 271.525 193.473 272.298 193.473 274.447V286.501C193.473 291.974 197.099 294.962 201.531 294.962ZM217.995 279.483C219.506 278.677 220.178 277.704 220.614 276.998C221.622 275.454 222.528 272.768 221.084 271.357C220.178 270.417 218.667 270.417 217.727 271.357C216.82 272.298 216.854 273.775 217.76 274.682C218.23 275.152 218.801 275.32 219.372 275.387C219.909 275.454 219.775 277.569 217.693 279.114L217.995 279.483ZM233.194 293.216C234.84 290.866 233.866 288.045 230.844 286.165L227.453 284.05C224.532 282.203 225.136 279.349 227.822 279.349C231.482 279.349 232.489 282.236 232.825 283.815H233.329V279.886C233.329 279.886 231.683 278.845 227.822 278.845C224.431 278.845 223.289 280.658 223.289 280.658C221.677 283.009 222.483 285.359 225.74 287.441L229.132 289.489C231.683 291.168 231.683 294.459 228.729 294.459C224.565 294.459 223.625 290.899 223.256 289.12H222.752V293.518C222.752 293.518 224.666 294.962 228.729 294.962C231.986 294.962 233.194 293.216 233.194 293.216Z" fill="#95AE45"/>
<path d="M130.652 304.362C130.652 307.83 128.947 307.811 126.584 307.811H125.983V300.876H126.584C128.753 300.876 130.652 300.74 130.652 304.362ZM134.313 314.087C133.809 314.048 132.647 313.951 132.318 312.46C131.272 307.849 130.071 308.062 128.773 307.927C130.749 307.869 132.298 307.113 132.298 304.362C132.298 301.127 130.439 300.663 126.584 300.663H123.446V300.876C124.298 300.876 124.55 301.031 124.55 302.232V312.053C124.55 313.854 124.279 314.087 123.446 314.087V314.3H127.145V314.087C126.332 314.087 125.983 313.796 125.983 312.44V308.024H126.894C127.649 308.024 129.703 308.024 130.187 310.077C131.175 314.281 130.981 314.3 132.996 314.3H134.313V314.087ZM139.814 309.418C139.814 306.706 141.247 305.389 142.351 305.389C143.204 305.389 144.695 306.416 144.695 309.418H139.814ZM145.548 311.975C145.238 312.963 143.979 313.835 142.739 313.777C141.112 313.699 139.852 312.615 139.814 309.651H146.013C146.013 306.59 144.366 305.176 142.371 305.176C140.124 305.176 138.322 306.997 138.322 309.922C138.322 312.634 140.046 314.474 142.39 314.474C144.521 314.474 145.567 312.905 145.703 312.034L145.548 311.975ZM156.621 313.564C157.532 312.266 156.989 310.736 155.227 309.651L153.27 308.43C151.585 307.365 151.527 305.389 153.638 305.389C156.021 305.389 156.525 306.9 156.602 308.256H156.796V305.796C156.796 305.796 155.866 305.176 153.638 305.176C151.662 305.176 151.159 306.358 151.159 306.358C150.519 307.636 150.907 308.605 152.747 309.883L154.704 311.065C156.176 312.034 156.68 314.261 154.297 314.261C151.643 314.261 151.236 312.576 151.159 311.026H150.965V313.758C150.965 313.758 151.953 314.474 154.297 314.474C156.002 314.474 156.621 313.564 156.621 313.564ZM166.791 312.847C166.636 313.312 166.171 313.738 165.61 313.738C164.718 313.738 164.118 313.215 164.118 311.452V305.563H166.365L166.404 305.35H164.118V302.328L162.781 302.503V305.35H161.774L161.813 305.563H162.781V311.511C162.781 313.854 163.634 314.474 164.97 314.474C165.997 314.474 166.733 313.738 166.946 312.925L166.791 312.847ZM176.222 309.438V312.44C176.009 312.905 175.506 313.758 174.304 313.758C173.162 313.758 172.639 312.944 172.639 312.111C172.639 310.852 173.801 310.019 176.222 309.438ZM178.45 313.699C177.598 313.699 177.617 312.537 177.617 312.537V309.05C177.617 306.745 177.094 305.176 175.196 305.176C175.196 305.176 174.266 305.137 173.452 305.544C172.425 306.106 172.057 306.706 171.941 306.978C171.825 307.229 171.864 307.559 172.057 307.811C172.329 308.179 172.832 308.217 173.162 307.946C173.51 307.656 173.588 307.152 173.297 306.803C173.162 306.629 172.968 306.551 172.774 306.513C172.658 306.493 172.794 306.087 173.626 305.699C175.273 304.963 176.222 306.145 176.222 308.14V309.225C172.948 310.077 171.302 310.619 171.302 312.46C171.302 314.474 173.491 314.474 173.491 314.474C174.847 314.474 175.951 313.777 176.222 312.808C176.28 314.532 177.714 314.474 177.714 314.474C178.624 314.474 179.147 313.758 179.264 313.176L179.07 313.099C178.934 313.699 178.45 313.699 178.45 313.699ZM192.2 313.951C191.387 313.854 191.212 313.699 191.212 312.77V305.176L188.965 305.525V305.738C189.895 305.757 189.876 305.835 189.876 307.016V312.13C189.585 312.963 188.888 313.738 187.725 313.738C186.602 313.738 185.536 313.157 185.536 311.511V305.176L183.154 305.525V305.738C184.239 305.738 184.239 305.815 184.239 307.113V311.569C184.239 314.029 185.827 314.474 187.164 314.474C188.5 314.474 189.604 313.583 189.876 312.595V314.203C189.876 314.203 189.876 314.552 190.321 314.455L192.2 314.145V313.951ZM201.169 305.215C200.22 305.215 198.96 305.97 198.399 307.113V305.176L196.093 305.622V305.815C196.907 305.912 197.062 306.203 197.062 306.861V312.789C197.062 313.777 197.023 313.874 196.287 314.087V314.3H199.193V314.087C198.495 313.913 198.399 313.854 198.399 312.789V307.539C198.96 306.183 200.51 305.583 200.413 305.97C200.355 306.183 200.394 306.416 200.51 306.61C200.801 307.036 201.362 307.152 201.769 306.881C202.195 306.61 202.312 306.067 202.04 305.641C201.827 305.35 201.479 305.215 201.169 305.215ZM210.865 309.438V312.44C210.651 312.905 210.148 313.758 208.947 313.758C207.804 313.758 207.281 312.944 207.281 312.111C207.281 310.852 208.443 310.019 210.865 309.438ZM213.092 313.699C212.24 313.699 212.259 312.537 212.259 312.537V309.05C212.259 306.745 211.736 305.176 209.838 305.176C209.838 305.176 208.908 305.137 208.094 305.544C207.068 306.106 206.7 306.706 206.583 306.978C206.467 307.229 206.506 307.559 206.7 307.811C206.971 308.179 207.475 308.217 207.804 307.946C208.153 307.656 208.23 307.152 207.939 306.803C207.804 306.629 207.61 306.551 207.416 306.513C207.3 306.493 207.436 306.087 208.269 305.699C209.915 304.963 210.865 306.145 210.865 308.14V309.225C207.591 310.077 205.944 310.619 205.944 312.46C205.944 314.474 208.133 314.474 208.133 314.474C209.489 314.474 210.593 313.777 210.865 312.808C210.923 314.532 212.356 314.474 212.356 314.474C213.267 314.474 213.79 313.758 213.906 313.176L213.712 313.099C213.577 313.699 213.092 313.699 213.092 313.699ZM226.416 314.106C225.719 313.932 225.622 313.854 225.622 312.789V308.334C225.622 306.009 224.421 305.176 222.833 305.176C221.612 305.176 220.353 306.087 219.966 307.171V305.176L217.66 305.622V305.815C218.474 305.932 218.629 306.203 218.629 306.881V312.789C218.629 313.777 218.59 313.874 217.854 314.087V314.3H220.76V314.087C220.063 313.913 219.966 313.854 219.966 312.789V307.617C220.198 306.958 220.992 305.912 222.097 305.912C223.53 305.912 224.305 306.9 224.305 308.411V312.789C224.305 313.777 224.266 313.893 223.53 314.106V314.3H226.416V314.106ZM235.527 312.847C235.372 313.312 234.907 313.738 234.346 313.738C233.455 313.738 232.854 313.215 232.854 311.452V305.563H235.101L235.14 305.35H232.854V302.328L231.517 302.503V305.35H230.51L230.549 305.563H231.517V311.511C231.517 313.854 232.37 314.474 233.706 314.474C234.733 314.474 235.469 313.738 235.682 312.925L235.527 312.847Z" fill="#95AE45"/>
</svg>
